<svg width="24" height="24" viewBox="0 0 24 24" fill="none" xmlns="http://www.w3.org/2000/svg">
<path d="M22.2507 5.16571H15.8978L14.615 3.01061C14.4895 2.7999 14.2625 2.67081 14.0173 2.67081H9.98258C9.73736 2.67081 9.51025 2.7999 9.38483 3.01061L8.102 5.16571H6.01734V4.69072C6.01734 4.30656 5.70588 3.99511 5.32172 3.99511H2.74786C2.36362 3.99511 2.05225 4.30656 2.05225 4.69072V5.16571H1.74923C0.783084 5.16571 0 5.94887 0 6.91486V19.5796C0 20.5457 0.783084 21.3288 1.74915 21.3288H22.2507C23.2168 21.3288 23.9999 20.5457 23.9999 19.5796V6.91486C24 5.94887 23.2168 5.16571 22.2507 5.16571ZM11.9999 18.2262C9.25011 18.2262 7.02097 15.9971 7.02097 13.2472C7.02097 10.4974 9.25011 8.26821 11.9999 8.26821C14.7497 8.26821 16.9789 10.4974 16.9789 13.2472C16.9789 15.9971 14.7497 18.2262 11.9999 18.2262ZM21.1594 8.77194H18.9797C18.5955 8.77194 18.284 8.46049 18.284 8.07625C18.284 7.69201 18.5955 7.38055 18.9797 7.38055H21.1594C21.5437 7.38055 21.8551 7.69201 21.8551 8.07625C21.8551 8.46049 21.5436 8.77194 21.1594 8.77194Z" fill="#191919"/>
<path d="M11.9997 16.7254C13.9207 16.7254 15.478 15.1681 15.478 13.2471C15.478 11.3261 13.9207 9.7688 11.9997 9.7688C10.0787 9.7688 8.52141 11.3261 8.52141 13.2471C8.52141 15.1681 10.0787 16.7254 11.9997 16.7254Z" fill="#191919"/>
</svg>
