<svg width="20" height="20" viewBox="0 0 20 20" fill="none" xmlns="http://www.w3.org/2000/svg">
<path d="M1.69629 10.2687C1.63872 10.0959 1.63867 9.90895 1.69614 9.73619C2.85311 6.2581 6.13399 3.75 10.0007 3.75C13.8656 3.75 17.1452 6.25577 18.3036 9.73134C18.3612 9.90406 18.3612 10.0911 18.3038 10.2638C17.1468 13.7419 13.8659 16.25 9.99922 16.25C6.13433 16.25 2.8547 13.7442 1.69629 10.2687Z" stroke="#0F172A" stroke-width="1.5" stroke-linecap="round" stroke-linejoin="round"/>
<path d="M12.5 10C12.5 11.3807 11.3807 12.5 10 12.5C8.61929 12.5 7.5 11.3807 7.5 10C7.5 8.61929 8.61929 7.5 10 7.5C11.3807 7.5 12.5 8.61929 12.5 10Z" stroke="#0F172A" stroke-width="1.5" stroke-linecap="round" stroke-linejoin="round"/>
</svg>
