<svg width="37" height="37" viewBox="0 0 37 37" fill="none" xmlns="http://www.w3.org/2000/svg">
<path d="M35.1358 18.4111C35.1358 17.2086 35.0279 16.0523 34.8275 14.9423H18.8558V21.5021H27.9824C27.5893 23.6219 26.3945 25.418 24.5985 26.6205V30.8755H30.0791C33.2858 27.9232 35.1358 23.5757 35.1358 18.4111Z" fill="#4285F4"/>
<path d="M18.8558 34.984C23.4345 34.984 27.2733 33.4655 30.0791 30.8755L24.5985 26.6205C23.08 27.638 21.1375 28.2392 18.8558 28.2392C14.4389 28.2392 10.7004 25.2561 9.36683 21.2477H3.7012V25.6415C6.49162 31.1838 12.2266 34.984 18.8558 34.984Z" fill="#34A853"/>
<path d="M9.36681 21.2477C9.02764 20.2302 8.83494 19.1433 8.83494 18.0256C8.83494 16.9079 9.02764 15.821 9.36681 14.8035V10.4098H3.70118C2.5141 12.7729 1.89638 15.3811 1.89743 18.0256C1.89743 20.7621 2.55264 23.3521 3.70118 25.6415L9.36681 21.2477Z" fill="#FBBC05"/>
<path d="M18.8558 7.81212C21.3456 7.81212 23.581 8.66774 25.3385 10.3482L30.2025 5.4842C27.2656 2.74774 23.4268 1.06732 18.8558 1.06732C12.2266 1.06732 6.49162 4.86753 3.7012 10.4098L9.36683 14.8036C10.7004 10.7952 14.4389 7.81212 18.8558 7.81212Z" fill="#EA4335"/>
</svg>
