<svg width="25" height="24" viewBox="0 0 25 24" fill="none" xmlns="http://www.w3.org/2000/svg">
<path d="M11.5697 3.84101C11.8626 3.54811 12.3374 3.54811 12.6303 3.84101L21.3197 12.5303C21.6126 12.8232 22.0874 12.8232 22.3803 12.5303C22.6732 12.2375 22.6732 11.7626 22.3803 11.4697L13.691 2.78035C12.8123 1.90167 11.3877 1.90167 10.509 2.78035L1.81968 11.4697C1.52678 11.7626 1.52678 12.2375 1.81968 12.5303C2.11257 12.8232 2.58744 12.8232 2.88034 12.5303L11.5697 3.84101Z" fill="#0F172A"/>
<path d="M12.1 5.432L20.259 13.591C20.2887 13.6207 20.3191 13.6494 20.35 13.6772V19.875C20.35 20.9105 19.5105 21.75 18.475 21.75H15.1C14.6858 21.75 14.35 21.4142 14.35 21V16.5C14.35 16.0858 14.0142 15.75 13.6 15.75H10.6C10.1858 15.75 9.85001 16.0858 9.85001 16.5V21C9.85001 21.4142 9.51422 21.75 9.10001 21.75H5.72501C4.68947 21.75 3.85001 20.9106 3.85001 19.875V13.6772C3.88093 13.6494 3.91128 13.6207 3.941 13.591L12.1 5.432Z" fill="#0F172A"/>
</svg>
