<svg width="25" height="24" viewBox="0 0 25 24" fill="none" xmlns="http://www.w3.org/2000/svg">
<path d="M12.1 18V12.75M12.1 12.75C12.618 12.75 13.1206 12.6844 13.6 12.561M12.1 12.75C11.5821 12.75 11.0794 12.6844 10.6 12.561M14.35 20.0394C13.6212 20.1777 12.8691 20.25 12.1 20.25C11.331 20.25 10.5788 20.1777 9.85001 20.0394M13.6 22.422C13.1071 22.4736 12.6066 22.5 12.1 22.5C11.5934 22.5 11.093 22.4736 10.6 22.422M14.35 18V17.8083C14.35 16.8254 15.0083 15.985 15.8585 15.4917C18.0956 14.1938 19.6 11.7726 19.6 9C19.6 4.85786 16.2421 1.5 12.1 1.5C7.95787 1.5 4.60001 4.85786 4.60001 9C4.60001 11.7726 6.10446 14.1938 8.34156 15.4917C9.19173 15.985 9.85001 16.8254 9.85001 17.8083V18" stroke="#0F172A" stroke-width="1.5" stroke-linecap="round" stroke-linejoin="round"/>
</svg>
