<svg width="18" height="24" viewBox="0 0 18 24" fill="none" xmlns="http://www.w3.org/2000/svg">
<path d="M9.09998 0.75C4.54363 0.75 0.849976 4.44365 0.849976 9C0.849976 12.0508 2.50629 14.7138 4.96513 16.1405C5.65059 16.5382 6.07983 17.1484 6.09925 17.7626C6.10997 18.1013 6.34654 18.3908 6.67638 18.4687C7.02776 18.5518 7.38583 18.6171 7.74956 18.6639C8.07317 18.7055 8.35016 18.4462 8.35016 18.12V13.4589C8.03088 13.4236 7.718 13.366 7.41321 13.2875C7.01207 13.1843 6.77058 12.7754 6.87383 12.3743C6.97708 11.9731 7.38596 11.7316 7.7871 11.8349C8.20591 11.9427 8.64574 12.0002 9.10016 12.0002C9.55458 12.0002 9.9944 11.9427 10.4132 11.8349C10.8144 11.7316 11.2232 11.9731 11.3265 12.3743C11.4297 12.7754 11.1882 13.1843 10.7871 13.2875C10.4823 13.366 10.1694 13.4236 9.85016 13.4589V18.1199C9.85016 18.4462 10.1272 18.7054 10.4508 18.6638C10.8144 18.6171 11.1723 18.5518 11.5236 18.4687C11.8534 18.3908 12.09 18.1013 12.1007 17.7626C12.1201 17.1484 12.5494 16.5382 13.2348 16.1405C15.6937 14.7138 17.35 12.0508 17.35 9C17.35 4.44365 13.6563 0.75 9.09998 0.75Z" fill="#0F172A"/>
<path fill-rule="evenodd" clip-rule="evenodd" d="M6.11312 19.8997C6.19031 19.4927 6.5828 19.2254 6.98975 19.3026C7.67272 19.4321 8.37807 19.5 9.09998 19.5C9.82188 19.5 10.5272 19.4321 11.2102 19.3026C11.6172 19.2254 12.0096 19.4927 12.0868 19.8997C12.164 20.3066 11.8967 20.6991 11.4898 20.7763C10.7151 20.9232 9.91616 21 9.09998 21C8.2838 21 7.48486 20.9232 6.7102 20.7763C6.30324 20.6991 6.03592 20.3066 6.11312 19.8997Z" fill="#0F172A"/>
<path fill-rule="evenodd" clip-rule="evenodd" d="M6.85405 22.344C6.89714 21.932 7.26604 21.633 7.67801 21.6761C8.14509 21.7249 8.61948 21.75 9.09998 21.75C9.58047 21.75 10.0549 21.7249 10.5219 21.6761C10.9339 21.633 11.3028 21.932 11.3459 22.344C11.389 22.7559 11.09 23.1248 10.678 23.1679C10.1592 23.2222 9.6327 23.25 9.09998 23.25C8.56726 23.25 8.04078 23.2222 7.52194 23.1679C7.10998 23.1248 6.81095 22.7559 6.85405 22.344Z" fill="#0F172A"/>
</svg>
