<svg width="24" height="24" viewBox="0 0 24 24" fill="none" xmlns="http://www.w3.org/2000/svg">
<path id="Vector (Stroke)" fill-rule="evenodd" clip-rule="evenodd" d="M0 3.42857C0 1.53502 1.53502 0 3.42857 0H4.99614C5.97943 0 6.83654 0.669208 7.07502 1.62314L8.33879 6.67821C8.54789 7.51463 8.23536 8.39491 7.54563 8.91221L6.0672 10.021C5.91368 10.1362 5.88031 10.3048 5.92343 10.4225C7.22115 13.9651 10.0349 16.7788 13.5775 18.0766C13.6952 18.1197 13.8638 18.0863 13.979 17.9328L15.0878 16.4544C15.6051 15.7646 16.4854 15.4521 17.3218 15.6612L22.3769 16.925C23.3308 17.1635 24 18.0206 24 19.0039V20.5714C24 22.465 22.465 24 20.5714 24H18C8.05887 24 0 15.9411 0 6V3.42857Z" fill="#0F172A"/>
</svg>
