<svg width="20" height="20" viewBox="0 0 20 20" fill="none" xmlns="http://www.w3.org/2000/svg">
<path fill-rule="evenodd" clip-rule="evenodd" d="M10.1001 0.25C4.71532 0.25 0.350098 4.61522 0.350098 10C0.350098 15.3848 4.71532 19.75 10.1001 19.75C15.4849 19.75 19.8501 15.3848 19.8501 10C19.8501 4.61522 15.4849 0.25 10.1001 0.25ZM7.1001 5.5C6.68588 5.5 6.3501 5.83579 6.3501 6.25C6.3501 6.66421 6.68588 7 7.1001 7H8.6001C9.57976 7 10.4132 7.62611 10.7221 8.5H7.1001C6.68588 8.5 6.3501 8.83579 6.3501 9.25C6.3501 9.66421 6.68588 10 7.1001 10H10.7221C10.4132 10.8739 9.57976 11.5 8.6001 11.5H7.1001C6.79675 11.5 6.52327 11.6827 6.40719 11.963C6.2911 12.2432 6.35527 12.5658 6.56977 12.7803L9.56977 15.7803C9.86266 16.0732 10.3375 16.0732 10.6304 15.7803C10.9233 15.4874 10.9233 15.0126 10.6304 14.7197L8.89902 12.9883C10.5786 12.8558 11.9469 11.6168 12.2751 10H13.1001C13.5143 10 13.8501 9.66421 13.8501 9.25C13.8501 8.83579 13.5143 8.5 13.1001 8.5H12.2751C12.1626 7.94584 11.9279 7.43606 11.6004 7H13.1001C13.5143 7 13.8501 6.66421 13.8501 6.25C13.8501 5.83579 13.5143 5.5 13.1001 5.5H7.1001Z" fill="#0F172A"/>
</svg>
