<svg width="25" height="24" viewBox="0 0 25 24" fill="none" xmlns="http://www.w3.org/2000/svg">
<path fill-rule="evenodd" clip-rule="evenodd" d="M2.09998 10.6699C2.09998 5.88166 5.94032 2 10.6776 2C12.9525 2 15.1343 2.91344 16.7429 4.53936C18.3515 6.16529 19.2553 8.37052 19.2553 10.6699C19.2553 15.4582 15.4149 19.3399 10.6776 19.3399C5.94032 19.3399 2.09998 15.4582 2.09998 10.6699ZM19.1133 17.6543L21.668 19.7164H21.7123C22.2292 20.2388 22.2292 21.0858 21.7123 21.6082C21.1955 22.1306 20.3575 22.1306 19.8407 21.6082L17.7207 19.1785C17.5203 18.9766 17.4076 18.7024 17.4076 18.4164C17.4076 18.1304 17.5203 17.8562 17.7207 17.6543C18.1072 17.2704 18.7268 17.2704 19.1133 17.6543Z" fill="black"/>
</svg>
