<svg width="25" height="24" viewBox="0 0 25 24" fill="none" xmlns="http://www.w3.org/2000/svg">
<path fill-rule="evenodd" clip-rule="evenodd" d="M10.6 3.75C6.87208 3.75 3.85001 6.77208 3.85001 10.5C3.85001 14.2279 6.87208 17.25 10.6 17.25C12.4642 17.25 14.1506 16.4953 15.373 15.273C16.5953 14.0506 17.35 12.3642 17.35 10.5C17.35 6.77208 14.3279 3.75 10.6 3.75ZM2.35001 10.5C2.35001 5.94365 6.04366 2.25 10.6 2.25C15.1564 2.25 18.85 5.94365 18.85 10.5C18.85 12.5078 18.132 14.3491 16.9399 15.7793L21.6303 20.4697C21.9232 20.7626 21.9232 21.2374 21.6303 21.5303C21.3374 21.8232 20.8626 21.8232 20.5697 21.5303L15.8793 16.8399C14.4491 18.032 12.6078 18.75 10.6 18.75C6.04366 18.75 2.35001 15.0563 2.35001 10.5Z" fill="#0F172A"/>
</svg>
