<svg width="25" height="24" viewBox="0 0 25 24" fill="none" xmlns="http://www.w3.org/2000/svg">
<path d="M18.0815 18.7248C16.7121 16.9175 14.5424 15.75 12.1 15.75C9.65758 15.75 7.48787 16.9175 6.11844 18.7248M18.0815 18.7248C19.9335 17.0763 21.1 14.6744 21.1 12C21.1 7.02944 17.0705 3 12.1 3C7.12941 3 3.09998 7.02944 3.09998 12C3.09998 14.6744 4.26648 17.0763 6.11844 18.7248M18.0815 18.7248C16.4915 20.1401 14.3961 21 12.1 21C9.80381 21 7.70848 20.1401 6.11844 18.7248M15.1 9.75C15.1 11.4069 13.7568 12.75 12.1 12.75C10.4431 12.75 9.09998 11.4069 9.09998 9.75C9.09998 8.09315 10.4431 6.75 12.1 6.75C13.7568 6.75 15.1 8.09315 15.1 9.75Z" stroke="#0F172A" stroke-width="1.5" stroke-linecap="round" stroke-linejoin="round"/>
</svg>
