<svg width="20" height="20" viewBox="0 0 20 20" fill="none" xmlns="http://www.w3.org/2000/svg">
<path fill-rule="evenodd" clip-rule="evenodd" d="M16.7855 17.0971C18.6722 15.3191 19.8501 12.7971 19.8501 10C19.8501 4.61522 15.4849 0.25 10.1001 0.25C4.71532 0.25 0.350098 4.61522 0.350098 10C0.350098 12.7971 1.52795 15.3191 3.41472 17.0971C5.16022 18.7419 7.51243 19.75 10.1001 19.75C12.6878 19.75 15.04 18.7419 16.7855 17.0971ZM4.24522 15.8123C5.61971 14.0978 7.7317 13 10.1001 13C12.4685 13 14.5805 14.0978 15.955 15.8123C14.4604 17.3178 12.3891 18.25 10.1001 18.25C7.8111 18.25 5.73982 17.3178 4.24522 15.8123ZM13.8501 7C13.8501 9.07107 12.1712 10.75 10.1001 10.75C8.02903 10.75 6.3501 9.07107 6.3501 7C6.3501 4.92893 8.02903 3.25 10.1001 3.25C12.1712 3.25 13.8501 4.92893 13.8501 7Z" fill="#0F172A"/>
</svg>
