<svg width="72" height="56" viewBox="0 0 72 56" fill="none" xmlns="http://www.w3.org/2000/svg">
<rect width="72" height="56" rx="8" fill="#0F172A"/>
<path d="M36 34V28.75M36 28.75C36.5179 28.75 37.0206 28.6844 37.5 28.561M36 28.75C35.4821 28.75 34.9794 28.6844 34.5 28.561M38.25 36.0394C37.5212 36.1777 36.769 36.25 36 36.25C35.231 36.25 34.4788 36.1777 33.75 36.0394M37.5 38.422C37.007 38.4736 36.5066 38.5 36 38.5C35.4934 38.5 34.993 38.4736 34.5 38.422M38.25 34V33.8083C38.25 32.8254 38.9083 31.985 39.7585 31.4917C41.9955 30.1938 43.5 27.7726 43.5 25C43.5 20.8579 40.1421 17.5 36 17.5C31.8579 17.5 28.5 20.8579 28.5 25C28.5 27.7726 30.0045 30.1938 32.2415 31.4917C33.0917 31.985 33.75 32.8254 33.75 33.8083V34" stroke="white" stroke-width="1.5" stroke-linecap="round" stroke-linejoin="round"/>
</svg>
