<svg width="251" height="209" viewBox="0 0 251 209" fill="none" xmlns="http://www.w3.org/2000/svg">
<g clip-path="url(#clip0_13_89)">
<path d="M142.99 184.897C141.255 182.387 138.905 180.551 135.951 179.864C133.376 179.264 130.727 179.366 128.109 179.387L95.0029 179.651C92.1676 179.673 89.4491 182.21 89.5808 185.251C89.7116 188.265 91.9637 190.874 95.0029 190.85C104.701 190.773 114.398 190.696 124.096 190.619C126.382 190.6 128.67 190.558 130.956 190.566C131.47 190.567 131.981 190.595 132.494 190.601C132.618 190.603 132.708 190.602 132.771 190.599C132.787 190.604 132.801 190.608 132.821 190.614C133.089 190.69 133.364 190.742 133.633 190.814C133.538 190.817 133.807 190.991 133.942 191.049C133.961 191.087 134 191.154 134.066 191.258C134.159 191.436 134.431 191.978 134.443 191.961C134.853 193.032 135.191 194.13 135.455 195.248C136.085 197.715 136.223 198.23 136.314 200.544C136.429 203.467 138.726 206.283 141.736 206.144C144.576 206.013 147.281 203.679 147.158 200.544C146.951 195.262 146.053 189.327 142.99 184.897Z" fill="#E6E6E6"/>
<path d="M96.949 197.534C96.3272 193.642 95.7173 189.748 95.0834 185.858C94.4402 181.913 93.1265 178.3 90.1534 175.71C89.359 175.018 88.5353 174.372 87.7081 173.728C87.4172 173.502 87.1268 173.275 86.8394 173.044C86.8222 173.03 86.8113 173.021 86.7963 173.009C86.7647 172.981 86.7268 172.948 86.6759 172.903C85.4367 171.82 84.2393 170.689 83.0988 169.486C82.0859 168.418 81.1173 167.305 80.193 166.146C79.962 165.856 79.734 165.564 79.5089 165.269C79.4702 165.219 79.2617 164.94 79.1244 164.759C78.9966 164.577 78.7632 164.249 78.7239 164.192C78.461 163.808 78.2028 163.42 77.9492 163.029C76.2223 160.357 74.7269 157.533 73.4804 154.589C73.3568 154.297 73.2361 154.003 73.1184 153.708C73.0868 153.618 73.0459 153.502 72.9916 153.348C72.7404 152.635 72.4897 151.922 72.2601 151.2C71.7721 149.667 71.3526 148.111 71.0015 146.533C70.828 145.754 70.6717 144.97 70.5328 144.183C70.4611 143.778 70.3941 143.372 70.3317 142.966C70.3215 142.898 70.2606 142.46 70.2247 142.212C70.1982 141.963 70.1489 141.522 70.1423 141.454C70.1025 141.044 70.0673 140.634 70.0365 140.223C69.9672 139.299 69.9203 138.373 69.8959 137.446C69.8542 135.799 69.8828 134.151 69.9816 132.504C70.0379 131.578 70.118 130.655 70.2166 129.734C70.2225 129.677 70.2272 129.632 70.2315 129.592C70.2374 129.55 70.2444 129.504 70.2526 129.446C70.3256 128.936 70.4024 128.428 70.4883 127.921C70.8135 125.996 71.2365 124.09 71.7554 122.211C72.0012 121.323 72.2681 120.441 72.5561 119.567C72.6845 119.179 72.817 118.793 72.9536 118.407C72.9447 118.432 73.3542 117.352 73.3597 117.316C74.9846 113.351 77.6423 109.736 77.646 105.232C77.6484 102.183 75.1504 99.2614 72.2239 99.4024C70.7648 99.4591 69.384 100.099 68.3726 101.186C67.3611 102.274 66.798 103.724 66.8018 105.232C66.8018 105.301 66.8015 105.359 66.8013 105.416C66.774 105.511 66.7512 105.59 66.7306 105.66C66.4138 106.371 66.0256 107.047 65.6778 107.74C64.7253 109.638 63.9124 111.599 63.1401 113.588C61.8759 116.827 60.9082 120.182 60.2497 123.607C58.8185 131.113 58.7074 138.824 59.9218 146.37C62.0241 159.604 68.9569 172.272 78.5951 180.787C79.4315 181.526 80.2883 182.24 81.1532 182.94C81.5111 183.229 81.872 183.513 82.2347 183.796C82.4061 183.929 83.1163 184.508 82.8039 184.227C83.4757 184.819 83.7585 185.117 83.9311 185.554C83.9561 185.654 83.9902 185.791 84.0363 185.977C84.158 186.469 84.2735 186.96 84.3694 187.459C85.2084 191.816 85.7915 196.247 86.4922 200.633C86.9739 203.647 90.5662 205.608 93.1621 204.705C96.1835 203.654 97.4651 200.763 96.949 197.534Z" fill="#E6E6E6"/>
<path d="M143.539 208.836C141.261 208.842 139.075 207.916 137.459 206.259C135.843 204.602 134.929 202.351 134.917 199.999V193.612C128.442 194.36 106.267 194.187 99.9112 193.132V199.744C99.8942 202.094 98.9784 204.341 97.3634 205.997C95.7485 207.652 93.5654 208.581 91.2901 208.581C89.0147 208.581 86.8317 207.652 85.2167 205.997C83.6018 204.341 82.686 202.094 82.6689 199.744V186.762C74.0599 181.823 66.8831 174.601 61.8791 165.841C56.8751 157.081 54.2253 147.1 54.203 136.929C54.203 119.49 61.8559 103.221 75.1996 92.2949C83.8755 85.1667 94.4166 80.8799 105.469 79.9849C106.969 79.8634 108.479 79.8019 109.956 79.8019C115.158 79.8019 138.631 80.6319 144.521 82.3818L157.95 68.6199C158.147 68.4148 158.399 68.2751 158.674 68.2186C158.948 68.1621 159.233 68.1913 159.492 68.3026C159.752 68.4096 159.975 68.5954 160.131 68.8357C160.288 69.0759 160.37 69.3594 160.367 69.6488V71.8369L162.982 69.1623C163.179 68.957 163.431 68.8171 163.706 68.7605C163.98 68.7039 164.265 68.7331 164.523 68.8445C164.784 68.9514 165.007 69.1373 165.163 69.3776C165.32 69.618 165.402 69.9016 165.4 70.1912V94.6426C172.138 100.916 177.274 108.81 180.352 117.624C183.431 126.438 184.356 135.9 183.046 145.172C181.737 154.444 178.233 163.239 172.845 170.777C167.458 178.316 160.353 184.366 152.16 188.391V199.999C152.148 202.351 151.235 204.602 149.618 206.259C148.002 207.916 145.816 208.842 143.539 208.836ZM135.595 192.818V199.999C135.612 202.163 136.457 204.233 137.945 205.757C139.432 207.281 141.443 208.136 143.539 208.136C145.634 208.136 147.645 207.281 149.133 205.757C150.62 204.233 151.465 202.163 151.482 199.999V187.949L151.675 187.854C160.868 183.349 168.673 176.3 174.221 167.491C181.292 156.25 184.233 142.767 182.511 129.481C180.789 116.195 174.519 103.984 164.835 95.0592L164.722 94.9548V70.1912C164.724 70.0408 164.682 69.8932 164.601 69.7683C164.52 69.6434 164.403 69.5473 164.267 69.4928C164.132 69.4332 163.983 69.4171 163.839 69.4466C163.695 69.4762 163.563 69.55 163.46 69.6584L159.69 73.5154V69.6488C159.692 69.4984 159.65 69.3507 159.568 69.2259C159.487 69.101 159.371 69.0048 159.235 68.9504C159.1 68.8909 158.95 68.8749 158.806 68.9047C158.662 68.9345 158.529 69.0085 158.427 69.1172L144.71 83.1737L144.515 83.1106C139.04 81.3409 115.198 80.5018 109.955 80.5018C108.496 80.5018 107.005 80.5627 105.522 80.6828C94.6042 81.5668 84.1911 85.8016 75.6207 92.8433C62.4401 103.636 54.8807 119.705 54.8807 136.929C54.9032 147.01 57.5389 156.901 62.514 165.574C67.489 174.247 74.622 181.387 83.1719 186.25L83.3467 186.35V199.744C83.3641 201.908 84.2087 203.977 85.6965 205.501C87.1843 207.024 89.1948 207.879 91.2901 207.879C93.3854 207.879 95.3959 207.024 96.8836 205.501C98.3714 203.977 99.216 201.908 99.2335 199.744V192.294L99.635 192.372C105.347 193.482 129.399 193.657 135.212 192.87L135.595 192.818Z" fill="#3F3D56"/>
<path d="M97.5967 41.689L60.069 53.3363C58.8754 53.7083 57.8735 54.5543 57.2836 55.6887C56.6936 56.823 56.5637 58.1528 56.9225 59.386C57.2813 60.6191 58.0994 61.6547 59.1971 62.2653C60.2948 62.8759 61.5823 63.0115 62.7767 62.6423L95.6175 52.4474L96.3055 52.2339C96.4447 48.5726 97.4065 44.9948 99.1148 41.7834C98.9004 41.6838 98.6713 41.6223 98.437 41.6014C98.1541 41.5731 97.8685 41.6029 97.5967 41.689Z" fill="#F9A826"/>
<path d="M62.1278 65.1255C61.6296 65.1243 61.1445 64.9614 60.7408 64.6598C60.3372 64.3583 60.0355 63.9334 59.8784 63.4452L57.5317 56.132C57.4337 55.8266 57.3949 55.5042 57.4175 55.1833C57.4401 54.8624 57.5238 54.5493 57.6636 54.2618C57.8034 53.9743 57.9967 53.718 58.2324 53.5077C58.4682 53.2973 58.7417 53.137 59.0374 53.0358L89.5811 42.5818C89.8768 42.4806 90.1889 42.4405 90.4996 42.4639C90.8103 42.4872 91.1135 42.5735 91.3918 42.7179C91.6702 42.8622 91.9184 43.0618 92.1221 43.3052C92.3258 43.5486 92.4811 43.831 92.5791 44.1364L94.9257 51.4496C95.121 52.0511 95.0818 52.7075 94.8166 53.2797C94.5514 53.8519 94.0809 54.295 93.5048 54.5152C93.4766 54.5261 93.4481 54.5364 93.4193 54.5461L62.8764 64.9998C62.635 65.0829 62.3822 65.1253 62.1278 65.1255Z" fill="#2F2E41"/>
<path d="M119.329 28.701C113.164 28.7035 107.243 31.1832 102.817 35.6152C98.3916 40.0473 95.8095 46.0838 95.6175 52.4473C95.6107 52.6957 95.6074 52.9477 95.6074 53.1997C95.6074 58.0451 96.9987 62.7817 99.6052 66.8105C102.212 70.8392 105.917 73.9793 110.251 75.8335C114.586 77.6878 119.355 78.173 123.957 77.2277C128.558 76.2824 132.785 73.9491 136.103 70.5229C139.42 67.0967 141.679 62.7315 142.595 57.9792C143.51 53.2269 143.04 48.301 141.245 43.8245C139.449 39.3479 136.409 35.5218 132.508 32.8298C128.607 30.1379 124.021 28.701 119.329 28.701ZM119.329 76.9984C113.219 76.9919 107.362 74.4824 103.042 70.0207C98.7214 65.559 96.2915 59.5095 96.2852 53.1997C96.2852 52.8742 96.292 52.5523 96.3055 52.2338C96.489 47.572 97.9954 43.0687 100.637 39.2839C103.279 35.4992 106.94 32.5999 111.164 30.9466C115.389 29.2933 119.991 28.959 124.398 29.9851C128.805 31.0113 132.823 33.3527 135.951 36.7182C139.08 40.0837 141.182 44.3249 141.996 48.9142C142.81 53.5036 142.299 58.2387 140.528 62.5309C138.757 66.823 135.803 70.4827 132.034 73.055C128.265 75.6272 123.847 76.9986 119.329 76.9984Z" fill="#3F3D56"/>
<path d="M139.323 53.1998C139.323 58.6763 137.216 63.9284 133.467 67.8008C129.717 71.6732 124.632 73.8487 119.329 73.8487C114.026 73.8487 108.941 71.6732 105.191 67.8008C101.442 63.9284 99.3351 58.6763 99.3351 53.1998C99.3351 52.5454 99.3655 51.9014 99.4231 51.2644C99.9049 45.9791 102.339 41.0885 106.221 37.608C110.102 34.1276 115.132 32.3247 120.267 32.5738C125.402 32.8228 130.246 35.1047 133.795 38.9456C137.343 42.7864 139.323 47.8911 139.323 53.1998Z" fill="#E6E6E6"/>
<path d="M125.283 54.5717C124.798 53.9137 124.161 53.3925 123.429 53.0563C122.527 52.6637 121.596 52.3476 120.644 52.1114V46.4907C122.107 46.7185 123.479 47.3647 124.605 48.3561L125.71 45.9237C125.075 45.3391 124.345 44.8736 123.555 44.5483C122.679 44.1819 121.759 43.9382 120.82 43.8238V40.975H118.262V43.8518C117.274 43.9664 116.321 44.2969 115.466 44.8213C114.694 45.2933 114.044 45.9513 113.571 46.7392C113.121 47.508 112.887 48.3918 112.897 49.2905C112.853 50.2645 113.126 51.2256 113.673 52.0204C114.176 52.7085 114.841 53.2529 115.605 53.6023C116.521 54.0065 117.469 54.3308 118.438 54.5717V59.958C116.711 59.8235 115.066 59.1455 113.724 58.0156L112.619 60.4514C113.37 61.0921 114.223 61.592 115.141 61.9283C116.146 62.2999 117.196 62.5261 118.262 62.6003V65.4247H120.82V62.5478C122.241 62.3874 123.574 61.7564 124.619 60.7489C125.079 60.2931 125.443 59.7436 125.687 59.1351C125.93 58.5266 126.049 57.8725 126.035 57.2141C126.078 56.2712 125.813 55.3408 125.283 54.5717ZM118.438 51.5164C117.815 51.3212 117.235 51 116.733 50.5715C116.534 50.3887 116.377 50.1628 116.273 49.9098C116.169 49.6569 116.12 49.3832 116.13 49.1085C116.112 48.4852 116.333 47.8797 116.747 47.4251C117.205 46.9482 117.796 46.6312 118.438 46.5187V51.5164ZM122.25 58.964C121.818 59.4219 121.255 59.7248 120.644 59.8285V55.1947C121.228 55.3566 121.774 55.6387 122.25 56.0242C122.431 56.1833 122.574 56.3823 122.67 56.6065C122.765 56.8307 122.811 57.0743 122.803 57.3191C122.826 57.9197 122.629 58.5074 122.25 58.964Z" fill="#F9A826"/>
<path d="M63.217 94.765C62.6931 94.7641 62.1842 94.5847 61.7691 94.2546C61.354 93.9246 61.0559 93.4623 60.9211 92.9395L59.6434 87.9453C59.4835 87.3176 59.5712 86.6499 59.8873 86.0889C60.2033 85.5278 60.722 85.1192 61.3294 84.9525L101.636 73.9527C102.244 73.7888 102.891 73.8804 103.434 74.2073C103.977 74.5343 104.372 75.0701 104.534 75.6975L105.616 79.9287L105.413 79.9449C95.0759 80.7751 85.1851 84.6458 76.911 91.0992L76.8522 91.1286L63.8188 94.6843C63.6224 94.7378 63.4201 94.7649 63.217 94.765Z" fill="#2F2E41"/>
<path d="M56.5414 119.434C51.8132 118.712 47.2913 116.947 43.2837 114.257C41.2983 112.925 39.4603 111.373 37.8027 109.627C36.1666 107.904 34.6015 105.945 33.7911 103.65C33.0114 101.526 33.0516 99.1747 33.9033 97.081C34.7435 95 36.3483 93.3481 38.366 92.4873C40.3957 91.6513 42.8481 91.5619 44.8235 92.4774C45.7648 92.9035 46.5794 93.5807 47.1835 94.4393C47.4644 94.8352 47.6723 95.2811 47.797 95.7546C47.9127 96.1838 47.9232 96.6359 47.8276 97.0702C47.7118 97.5039 47.5075 97.907 47.2285 98.2524C46.9495 98.5979 46.6022 98.8777 46.2099 99.0732C45.3464 99.5307 44.4109 99.8253 43.4473 99.9433C42.478 100.08 41.0857 100.204 40.3065 99.4005C40.1461 99.2415 40.02 99.0495 39.9363 98.8368C39.8777 98.6739 39.8577 98.4989 39.8779 98.3265C39.8665 98.4025 39.9249 98.1612 39.9215 98.1708C39.9092 98.2065 39.8559 98.2934 39.9317 98.1598C39.9554 98.1158 39.9818 98.0733 40.0107 98.0328C39.985 98.0672 39.9284 98.1246 40.0294 98.0261C40.1129 97.9317 40.2202 97.8633 40.3392 97.8285C40.3861 97.8144 40.4337 97.8032 40.4808 97.7899C40.6003 97.7562 40.3616 97.7918 40.4839 97.7877C40.5311 97.7862 40.5789 97.7874 40.6259 97.7852C40.7459 97.7796 40.5075 97.7514 40.6225 97.7812C40.6671 97.7928 40.7114 97.8041 40.7553 97.8185C40.8509 97.8496 40.6877 97.746 40.7524 97.8235C40.8283 97.9143 40.6727 97.7352 40.759 97.8231C40.8019 97.8667 40.8424 97.9127 40.8802 97.9611C41.0298 98.1137 41.2316 98.1992 41.4419 98.1992C41.6522 98.1992 41.854 98.1137 42.0036 97.9611C42.1481 97.8049 42.2288 97.5971 42.2288 97.381C42.2288 97.1649 42.1481 96.9572 42.0036 96.8009C41.2203 95.7981 39.6731 96.0459 38.8807 96.8934C37.8702 97.9743 38.2704 99.6874 39.2533 100.631C40.3661 101.698 41.9421 101.772 43.3736 101.593C44.5833 101.474 45.7621 101.13 46.8536 100.578C47.938 100.027 48.7862 99.0811 49.2339 97.922C49.436 97.3034 49.5086 96.6476 49.4468 95.9979C49.3851 95.3481 49.1905 94.7193 48.8759 94.1531C47.6121 91.6993 44.9952 90.4413 42.4086 90.2234C41.0768 90.1157 39.7376 90.2817 38.4685 90.712C37.1993 91.1423 36.0254 91.8283 35.0146 92.7302C33.0664 94.5416 31.8667 97.057 31.6637 99.7561C31.4379 102.555 32.4892 105.272 34.022 107.531C35.6267 109.825 37.5416 111.871 39.7083 113.604C43.944 117.097 48.9126 119.517 54.2164 120.67C54.8472 120.805 55.4815 120.92 56.1191 121.016C56.322 121.067 56.536 121.036 56.7175 120.929C56.8991 120.823 57.0345 120.649 57.0962 120.443C57.1507 120.233 57.123 120.01 57.0192 119.821C56.9154 119.632 56.7437 119.493 56.5414 119.434Z" fill="#3F3D56"/>
<path d="M132.242 83.7791C125.315 83.6782 118.409 83.8597 111.525 84.3238C109.172 84.4825 107.137 85.3414 107.137 86.7849C107.137 87.9918 109.156 89.4058 111.525 89.246C118.406 88.782 125.311 88.6004 132.242 88.7013C137.893 88.7837 137.889 83.8614 132.242 83.7791Z" fill="#CCCCCC"/>
<path d="M122.003 88.4575C121.255 88.4575 103.668 88.4286 103.668 85.9197C103.668 83.4111 121.255 83.3822 122.003 83.3822C122.752 83.3822 140.339 83.4111 140.339 85.9197C140.339 88.4286 122.752 88.4575 122.003 88.4575ZM104.356 85.9197C104.837 86.6804 111.301 87.7575 122.003 87.7575C132.705 87.7575 139.17 86.6804 139.651 85.9197C139.17 85.1593 132.705 84.0822 122.003 84.0822C111.301 84.0822 104.837 85.1593 104.356 85.9197Z" fill="#3F3D56"/>
<path d="M177.801 154.412C181.694 154.3 186.54 154.16 190.272 151.344C191.384 150.471 192.297 149.358 192.948 148.082C193.599 146.806 193.972 145.399 194.041 143.959C194.117 141.735 193.339 139.793 191.85 138.494C189.9 136.793 187.054 136.393 183.986 137.325L187.164 113.334L184.831 113.004L181.094 141.208L183.043 140.284C185.302 139.214 188.403 138.67 190.33 140.351C190.803 140.791 191.172 141.338 191.407 141.948C191.642 142.559 191.738 143.218 191.687 143.873C191.63 144.945 191.35 145.992 190.866 146.942C190.382 147.892 189.706 148.724 188.883 149.38C185.978 151.571 182.116 151.854 177.736 151.98L177.801 154.412Z" fill="#3F3D56"/>
<path d="M171.35 115.403H158.664V117.836H171.35V115.403Z" fill="#3F3D56"/>
<path d="M68.9571 105.952C68.3925 105.951 67.8469 105.741 67.4182 105.362C66.9895 104.982 66.7056 104.457 66.6175 103.881L65.8432 98.7781C65.7465 98.1363 65.9003 97.4811 66.2708 96.9562C66.6413 96.4313 67.1983 96.0797 67.8196 95.9785L109.004 89.314C109.626 89.2141 110.26 89.3729 110.768 89.7556C111.276 90.1382 111.617 90.7135 111.715 91.355L112.489 96.4585C112.586 97.1003 112.432 97.7555 112.062 98.2804C111.691 98.8053 111.134 99.1569 110.513 99.2581L69.3282 105.922C69.2055 105.942 69.0814 105.952 68.9571 105.952Z" fill="#2F2E41"/>
<path d="M51.9128 46.1467C61.4578 46.1467 69.1956 38.1554 69.1956 28.2976C69.1956 18.4399 61.4578 10.4486 51.9128 10.4486C42.3677 10.4486 34.6299 18.4399 34.6299 28.2976C34.6299 38.1554 42.3677 46.1467 51.9128 46.1467Z" fill="#F9A826"/>
<path d="M61.698 32.916C62.2504 32.7165 62.755 32.3971 63.1779 31.9794C63.4577 31.6816 63.671 31.3242 63.803 30.9322C63.935 30.5403 63.9824 30.1233 63.942 29.7105C63.9185 29.4162 63.8294 29.1316 63.6817 28.8787C63.534 28.6259 63.3318 28.4118 63.0907 28.2531C62.4652 27.8559 61.6387 27.8709 60.8043 28.2704L60.708 21.303L60.0303 21.3129L60.1435 29.5038L60.6594 29.1544C61.2576 28.7499 62.1172 28.4565 62.7356 28.8494C62.8885 28.9534 63.0162 29.0924 63.1086 29.2556C63.2011 29.4189 63.2558 29.602 63.2686 29.7906C63.2971 30.0982 63.2611 30.4085 63.1631 30.7004C63.0651 30.9923 62.9073 31.259 62.7005 31.4823C61.9659 32.2352 60.8784 32.4874 59.6373 32.7182L59.7574 33.407C60.4172 33.3035 61.0667 33.1392 61.698 32.916Z" fill="#2F2E41"/>
<path d="M67.6868 20.8139L64.0776 21.3784L64.1791 22.0704L67.7883 21.5059L67.6868 20.8139Z" fill="#2F2E41"/>
<path d="M56.2947 22.5953L52.6855 23.1598L52.787 23.8518L56.3962 23.2873L56.2947 22.5953Z" fill="#2F2E41"/>
<path d="M63.3342 105.64C62.7126 105.639 62.1062 105.442 61.5956 105.076C61.085 104.71 60.6944 104.192 60.4759 103.591L48.5598 70.6339C47.1034 66.5918 47.2589 62.1182 48.9923 58.1945C50.7257 54.2708 53.8953 51.2174 57.8059 49.7042L67.495 45.9677C67.8697 45.8223 68.2685 45.7548 68.6685 45.7691C69.0685 45.7834 69.4619 45.8793 69.8259 46.0513C70.189 46.2188 70.5161 46.4594 70.7881 46.759C71.0602 47.0587 71.2717 47.4113 71.4103 47.7962L93.4837 90.8383C93.627 91.2264 93.6946 91.6399 93.6825 92.0551C93.6705 92.4704 93.5791 92.879 93.4135 93.2575C93.2479 93.6361 93.0115 93.9771 92.7179 94.261C92.4242 94.5448 92.0791 94.7659 91.7024 94.9114L64.4 105.44C64.0592 105.572 63.6982 105.64 63.3342 105.64Z" fill="#2F2E41"/>
<path d="M64.5553 47.1013L86.4568 77.3486L71.637 47.4187C71.5146 47.0695 71.3268 46.7486 71.0843 46.4744C70.8418 46.2001 70.5493 45.9779 70.2237 45.8204C69.898 45.6629 69.5455 45.5732 69.1862 45.5565C68.827 45.5397 68.468 45.5962 68.1299 45.7227L64.5553 47.1013Z" fill="#E6E6E6"/>
<path d="M99.2336 70.0724L60.1284 67.4709C59.512 67.4299 58.9095 67.2639 58.3552 66.9824C57.801 66.7009 57.3058 66.3095 56.898 65.8303C56.4902 65.3512 56.1778 64.7938 55.9786 64.19C55.7794 63.5862 55.6973 62.9478 55.737 62.3112C55.7767 61.6746 55.9374 61.0523 56.21 60.4799C56.4826 59.9075 56.8616 59.3961 57.3256 58.9749C57.7895 58.5538 58.3292 58.2312 58.9139 58.0254C59.4985 57.8197 60.1167 57.7349 60.7331 57.7759L99.8382 60.3772C100.127 60.3964 100.409 60.4741 100.669 60.6059C100.928 60.7377 101.16 60.921 101.351 61.1454C101.542 61.3698 101.688 61.6308 101.782 61.9136C101.875 62.1964 101.913 62.4954 101.895 62.7935L101.573 67.9484C101.536 68.5505 101.268 69.1125 100.829 69.5108C100.391 69.9091 99.8166 70.1111 99.2336 70.0724Z" fill="#F9A826"/>
<path d="M88.7841 71.7401C88.7325 71.7401 88.6807 71.7384 88.6288 71.7349L56.5178 69.5988C56.2069 69.5782 55.903 69.4945 55.6235 69.3526C55.3439 69.2106 55.0942 69.0132 54.8885 68.7716C54.6829 68.5299 54.5253 68.2488 54.4248 67.9443C54.3244 67.6397 54.283 67.3178 54.303 66.9967L54.8521 58.1918C54.8721 57.8707 54.9532 57.5569 55.0907 57.2682C55.2282 56.9795 55.4194 56.7216 55.6534 56.5092C55.8874 56.2968 56.1596 56.1341 56.4545 56.0304C56.7494 55.9266 57.0611 55.8839 57.372 55.9046L89.4829 58.0406C90.1105 58.083 90.6961 58.3808 91.1113 58.8687C91.5265 59.3565 91.7373 59.9945 91.6976 60.6427L91.1486 69.4477C91.1183 69.9195 90.9569 70.3723 90.6836 70.7517C90.4103 71.131 90.0369 71.4209 89.608 71.5864C89.3445 71.6882 89.0655 71.7403 88.7841 71.7401Z" fill="#2F2E41"/>
<path d="M51.7146 16.4283C53.9882 14.4088 57.1105 16.2154 59.7179 15.8991C62.2124 15.5965 64.1822 13.2856 64.6854 10.8306C65.2724 7.9663 63.8329 5.09675 61.7111 3.31094C59.3873 1.35504 56.3053 0.793552 53.3847 1.15541C50.0374 1.57013 46.9761 3.18157 44.2292 5.13068C41.5778 6.95377 39.1395 9.08758 36.963 11.4895C35.0141 13.7125 33.3629 16.3622 32.8356 19.3535C32.3564 22.072 32.7223 25.0845 34.2784 27.3874C35.1035 28.5678 36.2093 29.5086 37.489 30.1191C38.8233 30.7958 40.2466 31.2795 41.5393 32.0446C43.4939 33.2014 45.3936 35.6 44.7813 38.0961C44.65 38.6414 44.391 39.145 44.027 39.5625C43.5896 40.0639 42.8007 39.4013 43.2392 38.8986C44.0094 38.0156 43.9791 36.8379 43.5686 35.7837C43.0805 34.5957 42.2162 33.6141 41.1173 32.9998C39.7642 32.2008 38.2702 31.7076 36.8834 30.9799C35.5559 30.3151 34.4036 29.3289 33.5246 28.1052C31.8647 25.7229 31.3681 22.6224 31.7446 19.7543C32.152 16.6505 33.6961 13.8301 35.6318 11.4666C37.7383 8.89441 40.3259 6.71715 42.9694 4.76116C45.8058 2.66238 48.9395 0.888003 52.4072 0.24624C55.4131 -0.310069 58.6713 0.0324296 61.2998 1.72419C63.7534 3.30333 65.6349 6.01977 65.822 9.05513C65.8892 10.4362 65.5988 11.8108 64.9808 13.0375C64.3628 14.2642 63.4394 15.2987 62.3057 16.0345C61.1424 16.7534 59.79 17.077 58.4391 16.9596C56.9949 16.8641 55.5494 16.4074 54.096 16.5342C53.4383 16.5754 52.8116 16.837 52.3107 17.2791C51.814 17.7204 51.2219 16.8659 51.7146 16.4283Z" fill="#2F2E41"/>
<path d="M250.597 209H0.403553C0.296741 209 0.194411 208.956 0.118993 208.877C0.0435747 208.799 0.0012207 208.694 0.0012207 208.583C0.0012207 208.473 0.0435747 208.367 0.118993 208.289C0.194411 208.211 0.296741 208.167 0.403553 208.167H250.597C250.704 208.167 250.806 208.21 250.882 208.289C250.958 208.367 251 208.473 251 208.583C251 208.694 250.958 208.8 250.882 208.878C250.806 208.956 250.704 209 250.597 209Z" fill="#3F3D56"/>
</g>
<defs>
<clipPath id="clip0_13_89">
<rect width="251" height="209" fill="white"/>
</clipPath>
</defs>
</svg>
