<svg width="254" height="202" viewBox="0 0 254 202" fill="none" xmlns="http://www.w3.org/2000/svg">
<g clip-path="url(#clip0_13_115)">
<path d="M189.475 199.574C185.959 196.6 183.823 191.903 184.383 187.331C184.943 182.758 188.412 178.555 192.911 177.584C197.411 176.613 202.54 179.301 203.907 183.7C204.659 175.218 205.525 166.382 210.031 159.159C214.11 152.62 221.176 147.94 228.833 147.103C236.491 146.266 244.553 149.428 249.329 155.477C254.105 161.526 255.274 170.32 251.929 177.265C249.465 182.381 244.926 186.189 240.17 189.286C224.8 199.211 206.366 203.248 188.26 200.652" fill="#F2F2F2"/>
<path d="M241.757 149.603C235.438 154.754 229.642 160.514 224.451 166.802C216.328 176.608 209.754 187.603 204.959 199.402C204.608 200.263 206.005 200.638 206.352 199.787C214.197 180.61 226.721 163.707 242.778 150.625C243.499 150.037 242.472 149.02 241.757 149.603Z" fill="white"/>
<path d="M62.0998 201.609H42.1607C41.4869 201.608 40.841 201.34 40.3646 200.863C39.8881 200.386 39.6202 199.74 39.6194 199.065V157.588C39.6202 156.914 39.8881 156.267 40.3646 155.79C40.841 155.313 41.4869 155.045 42.1607 155.044H62.0998C62.7736 155.045 63.4195 155.313 63.8959 155.79C64.3724 156.267 64.6403 156.914 64.6411 157.588V199.065C64.6403 199.74 64.3724 200.386 63.8959 200.863C63.4195 201.34 62.7736 201.608 62.0998 201.609Z" fill="#F9A826"/>
<path d="M109.407 202H89.4674C88.69 201.999 87.9446 201.69 87.3949 201.14C86.8452 200.589 86.536 199.843 86.5352 199.065V118.458C86.536 117.68 86.8452 116.934 87.3949 116.384C87.9446 115.834 88.69 115.524 89.4674 115.523H109.407C110.184 115.524 110.929 115.834 111.479 116.384C112.029 116.934 112.338 117.68 112.339 118.458V199.065C112.338 199.843 112.029 200.589 111.479 201.14C110.929 201.69 110.184 201.999 109.407 202ZM89.4674 116.306C88.8973 116.307 88.3507 116.534 87.9476 116.937C87.5445 117.341 87.3177 117.888 87.3171 118.458V199.065C87.3177 199.636 87.5445 200.183 87.9476 200.586C88.3507 200.99 88.8973 201.217 89.4674 201.218H109.407C109.977 201.217 110.523 200.99 110.926 200.586C111.329 200.183 111.556 199.636 111.557 199.065V118.458C111.556 117.888 111.329 117.341 110.926 116.937C110.523 116.534 109.977 116.307 109.407 116.306H89.4674Z" fill="#3F3D56"/>
<path d="M156.713 202H136.774C135.997 201.999 135.251 201.69 134.702 201.14C134.152 200.589 133.843 199.843 133.842 199.065V67.1982C133.843 66.4201 134.152 65.6741 134.702 65.1239C135.251 64.5738 135.997 64.2643 136.774 64.2634H156.713C157.491 64.2643 158.236 64.5738 158.786 65.1239C159.336 65.6741 159.645 66.4201 159.646 67.1982V199.065C159.645 199.843 159.336 200.589 158.786 201.14C158.236 201.69 157.491 201.999 156.713 202ZM136.774 65.046C136.204 65.0467 135.657 65.2736 135.254 65.6771C134.851 66.0805 134.624 66.6276 134.624 67.1982V199.065C134.624 199.636 134.851 200.183 135.254 200.586C135.657 200.99 136.204 201.217 136.774 201.217H156.713C157.283 201.217 157.83 200.99 158.233 200.586C158.636 200.183 158.863 199.636 158.864 199.065V67.1982C158.863 66.6276 158.636 66.0805 158.233 65.6771C157.83 65.2736 157.283 65.0467 156.713 65.046H136.774Z" fill="#3F3D56"/>
<path d="M204.462 201.804H184.522C183.849 201.804 183.203 201.535 182.726 201.059C182.25 200.582 181.982 199.935 181.981 199.261V13.3948C181.982 12.7204 182.25 12.074 182.726 11.5971C183.203 11.1203 183.849 10.8521 184.522 10.8513H204.462C205.135 10.8521 205.781 11.1203 206.258 11.5971C206.734 12.074 207.002 12.7204 207.003 13.3948V199.261C207.002 199.935 206.734 200.582 206.258 201.059C205.781 201.535 205.135 201.804 204.462 201.804Z" fill="#F9A826"/>
<path d="M80.4524 87.0082C80.5247 86.4375 80.4712 85.8579 80.2955 85.3102C80.1198 84.7625 79.8263 84.26 79.4355 83.8381C79.0448 83.4162 78.5665 83.0852 78.0341 82.8684C77.5017 82.6515 76.9284 82.5542 76.3543 82.5831L69.4043 69.8232L67.8405 75.3014L72.602 86.9956C72.7145 87.9575 73.1756 88.8447 73.8981 89.4891C74.6205 90.1335 75.5539 90.4902 76.5216 90.4918C77.4893 90.4933 78.4239 90.1395 79.1484 89.4975C79.8728 88.8554 80.3368 87.9697 80.4524 87.0082Z" fill="#A0616A"/>
<path d="M26.9047 137.39L30.7756 140.218L43.5191 126.62L37.8055 122.445L26.9047 137.39Z" fill="#A0616A"/>
<path d="M35.6173 149.271L23.4505 140.381L26.8824 135.676L34.3484 141.131C35.5951 142.042 36.4292 143.412 36.6672 144.938C36.9051 146.465 36.5275 148.023 35.6173 149.271Z" fill="#2F2E41"/>
<path d="M47.3853 152.362L52.1785 152.362L54.4586 133.858L47.3845 133.859L47.3853 152.362Z" fill="#A0616A"/>
<path d="M61.4226 156.816L46.3585 156.817L46.3582 150.991L55.6021 150.991C57.1457 150.991 58.6262 151.605 59.7177 152.697C60.8093 153.789 61.4225 155.271 61.4226 156.816Z" fill="#2F2E41"/>
<path d="M61.7806 80.1928C61.7806 80.1928 64.1264 102.888 58.2619 118.54L53.9613 148.279H46.5329L47.3149 113.062L44.5781 81.758C44.5781 81.758 50.0516 67.6713 61.7806 80.1928Z" fill="#2F2E41"/>
<path d="M36.3679 81.7576L44.1872 108.757L28.9396 133.018L36.5634 139.474L53.9613 112.279L48.8788 79.0186L36.3679 81.7576Z" fill="#2F2E41"/>
<path d="M56.3085 21.2138C61.6119 21.2138 65.911 16.9109 65.911 11.6031C65.911 6.29527 61.6119 1.99243 56.3085 1.99243C51.0052 1.99243 46.7061 6.29527 46.7061 11.6031C46.7061 16.9109 51.0052 21.2138 56.3085 21.2138Z" fill="#A0616A"/>
<path d="M48.2922 24.8241C48.2922 24.8241 54.1567 20.9111 60.8031 29.5196L62.5624 83.7143C62.5624 83.7143 57.4799 76.6709 46.9238 83.323C36.3678 89.975 34.022 82.5404 34.022 82.5404C34.022 82.5404 26.5937 26.5849 48.2922 24.8241Z" fill="#CCCCCC"/>
<path d="M60.3301 29.383C62.0167 29.4743 63.6101 30.1866 64.8036 31.3828C65.9972 32.5791 66.7066 34.1748 66.7954 35.863L68.0359 59.4539L76.2462 81.7579L71.5546 85.6708L56.307 59.0626L53.1852 37.1918C53.0422 36.1894 53.1229 35.1676 53.4217 34.2002C53.7205 33.2327 54.2298 32.3436 54.9131 31.5968C55.5964 30.8501 56.4366 30.2642 57.3733 29.8814C58.31 29.4986 59.3198 29.3284 60.3301 29.383Z" fill="#CCCCCC"/>
<path d="M49.2528 18.8122C50.8226 20.4858 53.738 19.5873 53.9426 17.3009C53.9586 17.1234 53.9574 16.9448 53.9391 16.7675C53.8335 15.7547 53.2489 14.8352 53.3889 13.7659C53.4206 13.4997 53.5197 13.2461 53.6767 13.029C54.9277 11.3525 57.8642 13.7789 59.0448 12.2612C59.7687 11.3305 58.9178 9.86527 59.4733 8.82512C60.2065 7.45229 62.3782 8.12951 63.7401 7.37769C65.2554 6.54118 65.1647 4.21434 64.1673 2.79904C62.9508 1.07303 60.818 0.152008 58.7118 0.01926C56.6056 -0.113488 54.5138 0.456374 52.5475 1.22334C50.3133 2.09476 48.0978 3.2991 46.7229 5.26529C45.0509 7.6564 44.89 10.871 45.7262 13.667C46.2348 15.3678 47.9709 17.4455 49.2528 18.8122Z" fill="#2F2E41"/>
<path d="M253.534 201.834H0.465506C0.342277 201.834 0.224214 201.784 0.137204 201.697C0.0501945 201.61 0.00134277 201.491 0.00134277 201.368C0.00134277 201.245 0.0501945 201.126 0.137204 201.039C0.224214 200.952 0.342277 200.902 0.465506 200.902H253.534C253.658 200.902 253.776 200.952 253.863 201.039C253.95 201.126 253.999 201.245 253.999 201.368C253.999 201.491 253.95 201.61 253.863 201.697C253.776 201.784 253.658 201.834 253.534 201.834Z" fill="#3F3D56"/>
</g>
<defs>
<clipPath id="clip0_13_115">
<rect width="254" height="202" fill="white"/>
</clipPath>
</defs>
</svg>
