<svg width="252" height="229" viewBox="0 0 252 229" fill="none" xmlns="http://www.w3.org/2000/svg">
<g clip-path="url(#clip0_13_36)">
<path d="M121.124 45.8863C123.93 43.0302 127.677 42.1632 129.494 43.9496C131.311 45.736 130.509 49.4988 127.702 52.3556C126.596 53.5121 125.23 54.387 123.717 54.907L111.677 66.8583L106.191 61.0867L118.643 49.9176C119.136 48.3949 119.987 47.0125 121.124 45.8863Z" fill="#FFB6B6"/>
<path d="M82.6197 36.0212L95.2432 64.036L115.401 53.1206L122.615 56.9508C122.615 56.9508 106.136 84.5101 94.8536 81.3728C83.5708 78.2356 63.5354 49.789 67.1453 41.0095C70.7552 32.2301 82.6197 36.0212 82.6197 36.0212Z" fill="#E6E6E6"/>
<path d="M141.136 51.8349C138.206 49.1072 137.237 45.3836 138.973 43.5182C140.708 41.6529 144.49 42.3522 147.421 45.0812C148.607 46.1553 149.519 47.4978 150.079 48.9965L162.35 60.7106L156.732 66.3538L145.232 54.2067C143.697 53.7546 142.292 52.9414 141.136 51.8349Z" fill="#A0616A"/>
<path d="M202.946 53.6405L179.261 78.8659C179.261 78.8659 173.942 84.1305 165.192 76.5384C156.441 68.9463 146.712 56.4906 146.712 56.4906L152.17 50.5482L161.838 59.1765C161.838 59.1765 167.578 61.487 167.977 62.9819C168.376 64.4769 167.26 65.0952 169.053 64.6162C170.847 64.1371 170.882 63.0685 170.994 64.6892C171.106 66.3099 170.011 68.2041 172.083 66.3694C174.155 64.5347 174.773 65.6508 174.773 65.6508L189.911 45.5914C189.911 45.5914 199.692 37.8534 202.504 44.7897C205.316 51.726 202.946 53.6405 202.946 53.6405Z" fill="#F9A826"/>
<path d="M77.0845 222.728L86.289 222.727L90.6677 187.211L77.0826 187.212L77.0845 222.728Z" fill="#FFB6B6"/>
<path d="M108.62 222.519C108.907 223.002 109.058 224.561 109.058 225.122C109.058 226.848 107.659 228.247 105.934 228.247H77.4287C76.2517 228.247 75.2975 227.293 75.2975 226.115V224.928C75.2975 224.928 73.8873 221.36 76.7905 216.962C76.7905 216.962 80.3988 220.406 85.7906 215.012L87.3806 212.131L98.8898 220.551L105.269 221.337C106.665 221.508 107.902 221.31 108.62 222.519Z" fill="#2F2E41"/>
<path d="M183.171 58.8279H205.981V25.1098H183.171V58.8279Z" fill="#2F2E41"/>
<path d="M200.861 48.5468L200.062 38.8894H189.441L187.086 49.1212L200.861 48.5468Z" fill="#A0616A"/>
<path opacity="0.1" d="M200.861 48.5468L200.062 38.8894H189.441L187.086 49.1212L200.861 48.5468Z" fill="black"/>
<path d="M84.0496 37.8189L84.2357 25.3995L76.5799 20.6254L68.2551 30.8122L84.0496 37.8189Z" fill="#FFB6B6"/>
<path opacity="0.1" d="M84.0496 37.8189L84.5451 25.709L76.58 20.6254L79.2861 35.6119L84.0496 37.8189Z" fill="black"/>
<path d="M193.079 41.9622C199.491 41.9622 204.689 36.762 204.689 30.3473C204.689 23.9327 199.491 18.7325 193.079 18.7325C186.666 18.7325 181.468 23.9327 181.468 30.3473C181.468 36.762 186.666 41.9622 193.079 41.9622Z" fill="#A0616A"/>
<path d="M190.15 18.1278C190.15 18.1278 190.15 13.3596 194.576 14.3813C199.002 15.4031 200.364 17.106 200.364 17.106C200.364 17.106 202.066 19.8307 204.79 20.1713C207.513 20.5119 209.897 28.3454 209.556 30.0483C209.216 31.7512 207.513 36.1789 209.897 38.2224C212.28 40.2659 215.685 43.3312 214.663 46.3965C213.642 49.4617 210.578 57.2952 210.578 57.2952C210.578 57.2952 219.124 58.5449 218.426 63.8804C218.426 63.8804 214.323 60.7011 208.875 60.7011C203.428 60.7011 204.109 50.8147 204.109 50.8147C204.109 50.8147 203.768 44.6935 202.747 42.9906C201.726 41.2877 203.088 31.7512 197.981 26.6424C192.874 21.5336 190.15 18.1278 190.15 18.1278Z" fill="#2F2E41"/>
<path d="M191.512 17.1061C191.512 17.1061 185.043 18.4684 182.66 24.9396C180.277 31.4107 181.48 32.6148 181.48 32.6148C181.48 32.6148 180.953 36.5115 178.062 37.8778C175.17 39.2442 177.553 45.0342 177.553 45.0342C177.553 45.0342 176.872 50.8242 167.68 52.8677C158.487 54.9112 179.207 70.5819 179.207 70.5819C179.207 70.5819 177.717 63.1858 187.25 62.8452C196.783 62.5046 185.384 45.0342 185.384 45.0342L184.362 33.7948C184.362 33.7948 186.405 20.8525 192.533 19.1496C198.661 17.4467 191.512 17.1061 191.512 17.1061Z" fill="#2F2E41"/>
<path d="M84.0734 29.2643C91.5931 29.2643 97.689 23.1661 97.689 15.6437C97.689 8.12122 91.5931 2.02307 84.0734 2.02307C76.5538 2.02307 70.4579 8.12122 70.4579 15.6437C70.4579 23.1661 76.5538 29.2643 84.0734 29.2643Z" fill="#FFB6B6"/>
<path d="M102.642 119.942L89.9588 206.284H74.0457L76.1617 156.998L77.2753 131.083L74.0457 118.747C74.0457 118.747 72.5732 116.006 71.3327 112.682C69.9344 108.931 68.83 104.435 70.4696 102.302C71.0728 101.516 72.6412 100.934 74.7727 100.501C76.0751 100.235 77.5909 100.028 79.2274 99.8668C88.6379 98.9353 102.024 99.5171 102.024 99.5171L102.364 110.751L102.553 117.024L102.642 119.942Z" fill="#2F2E41"/>
<path d="M24.6771 208.972L32.7859 213.329L53.4463 184.115L41.4787 177.684L24.6771 208.972Z" fill="#FFB6B6"/>
<path d="M52.5561 223.719C52.5802 224.28 51.9761 225.724 51.7104 226.219C50.8938 227.739 48.9998 228.31 47.4798 227.493L22.3692 213.997C21.3323 213.439 20.9433 212.147 21.5004 211.11L22.0621 210.064C22.0621 210.064 22.5081 206.253 27.1462 203.753C27.1462 203.753 28.6956 208.495 35.997 206.297L38.7609 204.511L44.9157 217.378L50.1638 221.09C51.3119 221.902 52.496 222.313 52.5561 223.719Z" fill="#2F2E41"/>
<path d="M102.552 117.024L95.821 130.526L76.1616 156.998L43.7971 200.58L29.7803 193.048L68.2019 128.332L71.1965 115.934C71.1965 115.934 71.1965 114.594 71.3326 112.682C71.5986 108.897 72.3968 102.866 74.7726 100.501C75.0943 100.179 75.4439 99.9257 75.8244 99.7555C76.539 99.4336 77.7269 99.511 79.2273 99.8669C85.4948 101.365 97.1914 107.799 102.364 110.751L102.552 117.024Z" fill="#2F2E41"/>
<path d="M199.996 223.811L192.082 223.811L188.317 193.273L199.998 193.274L199.996 223.811Z" fill="#A0616A"/>
<path d="M172.881 223.632C172.635 224.047 172.505 225.387 172.505 225.87C172.505 227.354 173.707 228.557 175.191 228.557H199.7C200.712 228.557 201.533 227.736 201.533 226.724V225.703C201.533 225.703 202.745 222.635 200.249 218.854C200.249 218.854 197.146 221.815 192.511 217.177L191.143 214.699L181.248 221.939L175.763 222.615C174.563 222.763 173.499 222.592 172.881 223.632Z" fill="#2F2E41"/>
<path d="M231.173 214.481L223.857 217.501L208.733 190.708L219.531 186.252L231.173 214.481Z" fill="#A0616A"/>
<path d="M206.04 224.662C205.971 225.14 206.361 226.428 206.545 226.874C207.111 228.246 208.682 228.9 210.053 228.333L232.709 218.981C233.645 218.595 234.09 217.523 233.704 216.587L233.315 215.644C233.315 215.644 233.266 212.345 229.516 209.802C229.516 209.802 227.778 213.723 221.724 211.205L219.515 209.436L213.129 219.905L208.316 222.622C207.263 223.217 206.214 223.465 206.04 224.662Z" fill="#2F2E41"/>
<path d="M203.627 119.057L200.398 131.392L201.258 151.409L202.684 184.655L202.724 185.593L202.885 189.331L203.627 206.593H187.714L180.63 158.369L175.031 120.252L175.619 100.842L175.65 99.8266C175.65 99.8266 204.11 98.5887 207.204 102.612C210.297 106.635 203.627 119.057 203.627 119.057Z" fill="#2F2E41"/>
<path d="M225.768 194.183L223.07 195.579L213.094 200.744L211.634 201.499L202.885 189.331L180.63 158.369L175.031 120.252L175.619 100.842C178.137 100.04 180.151 99.7122 181.172 100.189C185.769 102.34 185.549 116.439 185.549 116.439L188.349 128.88L201.258 151.409L225.768 194.183Z" fill="#2F2E41"/>
<path d="M168.23 197.99C168.025 197.363 166.473 197.639 166.324 197.078C166.176 196.52 167.665 196.051 168.807 194.477C169.013 194.193 170.311 192.404 169.813 191.651C168.87 190.225 162.304 193.778 160.729 191.784C160.383 191.346 160.24 190.595 159.21 189.198C158.8 188.642 158.537 188.373 158.223 188.381C157.777 188.392 157.618 188.95 156.917 189.961C155.866 191.477 155.487 191.286 154.795 192.528C154.281 193.45 154.22 194.039 153.849 194.074C153.325 194.123 153.108 192.975 152.467 192.931C151.814 192.885 151.159 194.019 150.835 194.905C150.226 196.568 150.603 197.839 150.687 199.106C150.777 200.482 150.564 202.497 149.069 205.084L134.967 227.56C137.996 222.978 146.593 210.483 150.056 205.9C151.056 204.577 152.131 203.249 153.784 202.999C155.377 202.758 157.314 203.546 160.018 203.5C160.334 203.495 161.213 203.469 161.427 203.003C161.603 202.618 161.165 202.283 161.324 201.92C161.538 201.435 162.502 201.643 163.815 201.321C164.741 201.093 165.369 200.717 165.91 200.394C166.073 200.296 168.503 198.824 168.23 197.99Z" fill="#F2F2F2"/>
<path d="M131.295 203.238C130.928 203.157 130.616 203.999 130.298 203.91C129.981 203.822 130.181 202.956 129.738 201.94C129.658 201.757 129.155 200.604 128.642 200.631C127.67 200.683 127.518 204.931 126.086 205.13C125.771 205.174 125.362 205.027 124.379 205.129C123.988 205.17 123.78 205.222 123.693 205.378C123.57 205.601 123.798 205.84 124.091 206.475C124.532 207.429 124.329 207.56 124.739 208.258C125.043 208.777 125.314 208.976 125.224 209.168C125.097 209.44 124.471 209.215 124.265 209.517C124.054 209.825 124.421 210.473 124.763 210.888C125.403 211.667 126.135 211.849 126.781 212.173C127.482 212.526 128.409 213.212 129.247 214.692L136.205 228.101C134.831 225.292 131.181 217.466 129.932 214.443C129.572 213.57 129.23 212.659 129.584 211.775C129.926 210.924 130.871 210.2 131.629 208.859C131.718 208.703 131.958 208.264 131.791 208.024C131.653 207.826 131.362 207.945 131.231 207.762C131.054 207.517 131.434 207.104 131.655 206.366C131.811 205.846 131.808 205.429 131.805 205.07C131.804 204.962 131.783 203.344 131.295 203.238Z" fill="#F2F2F2"/>
<path d="M138.237 206.509L138.456 204.489L138.59 204.362C139.211 203.775 139.599 203.154 139.744 202.514C139.768 202.412 139.786 202.309 139.804 202.204C139.877 201.789 139.967 201.273 140.366 200.736C140.589 200.438 141.18 199.762 141.79 199.998C141.954 200.06 142.065 200.167 142.142 200.28C142.162 200.26 142.182 200.24 142.203 200.219C142.466 199.963 142.65 199.869 142.828 199.779C142.964 199.71 143.105 199.638 143.343 199.448C143.448 199.364 143.531 199.289 143.602 199.226C143.816 199.035 144.089 198.811 144.464 198.899C144.861 199.008 144.997 199.387 145.088 199.638C145.249 200.086 145.299 200.393 145.332 200.598C145.343 200.672 145.357 200.756 145.368 200.783C145.454 201.003 146.546 201.059 146.956 201.083C147.879 201.133 148.678 201.176 148.87 201.809C149.008 202.261 148.721 202.754 147.992 203.314C147.765 203.488 147.538 203.608 147.34 203.698C147.462 203.813 147.559 203.97 147.565 204.183C147.578 204.687 147.061 205.074 146.027 205.335C145.771 205.401 145.425 205.488 144.973 205.466C144.76 205.455 144.574 205.423 144.415 205.392C144.391 205.483 144.348 205.577 144.269 205.666C144.039 205.93 143.668 205.997 143.164 205.848C142.607 205.693 142.167 205.482 141.779 205.297C141.44 205.135 141.148 204.997 140.903 204.959C140.447 204.895 140.021 205.177 139.512 205.552L138.237 206.509Z" fill="#F2F2F2"/>
<path d="M141.877 195.003L139.868 195.304L139.712 195.206C138.987 194.754 138.287 194.536 137.632 194.558C137.527 194.561 137.423 194.57 137.317 194.579C136.897 194.614 136.375 194.657 135.755 194.407C135.41 194.267 134.607 193.866 134.68 193.217C134.698 193.042 134.773 192.907 134.863 192.804C134.839 192.79 134.815 192.776 134.789 192.761C134.475 192.571 134.338 192.417 134.205 192.268C134.104 192.153 133.999 192.035 133.754 191.853C133.647 191.773 133.553 191.711 133.474 191.659C133.235 191.501 132.949 191.293 132.94 190.908C132.944 190.496 133.276 190.268 133.496 190.117C133.888 189.847 134.173 189.721 134.362 189.637C134.431 189.607 134.508 189.572 134.532 189.555C134.722 189.416 134.5 188.345 134.419 187.942C134.233 187.036 134.072 186.252 134.635 185.906C135.037 185.658 135.587 185.811 136.313 186.374C136.539 186.55 136.713 186.739 136.85 186.907C136.93 186.76 137.057 186.627 137.262 186.567C137.746 186.426 138.252 186.829 138.766 187.762C138.895 187.994 139.066 188.306 139.16 188.749C139.203 188.958 139.219 189.147 139.23 189.308C139.324 189.308 139.426 189.326 139.532 189.38C139.845 189.535 140.004 189.878 139.988 190.403C139.98 190.981 139.887 191.46 139.806 191.883C139.736 192.252 139.676 192.57 139.702 192.816C139.756 193.274 140.137 193.614 140.628 194.012L141.877 195.003Z" fill="#F2F2F2"/>
<path d="M142.148 188.968L142.367 186.948L142.501 186.821C143.121 186.234 143.51 185.613 143.655 184.973C143.678 184.871 143.696 184.768 143.715 184.664C143.787 184.248 143.878 183.732 144.277 183.195C144.5 182.897 145.091 182.221 145.701 182.457C145.865 182.519 145.976 182.626 146.053 182.739C146.073 182.719 146.093 182.7 146.114 182.678C146.377 182.422 146.561 182.329 146.739 182.238C146.875 182.169 147.016 182.097 147.254 181.907C147.358 181.823 147.442 181.748 147.513 181.685C147.727 181.494 148 181.27 148.375 181.359C148.772 181.467 148.908 181.846 148.999 182.097C149.16 182.545 149.21 182.853 149.242 183.057C149.254 183.131 149.268 183.215 149.278 183.243C149.365 183.462 150.457 183.518 150.867 183.542C151.79 183.592 152.589 183.636 152.781 184.268C152.919 184.72 152.632 185.214 151.903 185.773C151.676 185.947 151.449 186.067 151.251 186.157C151.373 186.272 151.47 186.429 151.475 186.642C151.489 187.146 150.972 187.533 149.938 187.794C149.681 187.86 149.336 187.947 148.884 187.925C148.671 187.914 148.485 187.882 148.326 187.851C148.302 187.942 148.259 188.036 148.18 188.125C147.95 188.389 147.579 188.456 147.075 188.307C146.518 188.152 146.078 187.941 145.69 187.756C145.351 187.594 145.059 187.456 144.814 187.418C144.358 187.354 143.932 187.636 143.423 188.011L142.148 188.968Z" fill="#F2F2F2"/>
<path d="M135.634 227.675L135.279 227.324L134.785 227.271C134.788 227.225 134.784 227.116 134.781 226.947C134.762 226.017 134.703 223.189 135.097 218.843C135.371 215.81 135.831 212.73 136.462 209.689C137.094 206.644 137.75 204.378 138.277 202.556C138.675 201.182 139.076 199.879 139.468 198.61C140.514 195.219 141.501 192.016 142.112 188.362C142.249 187.546 142.533 185.848 141.952 183.845C141.614 182.682 141.036 181.588 140.233 180.594L141.01 179.966C141.896 181.065 142.535 182.276 142.91 183.567C143.555 185.789 143.246 187.639 143.097 188.528C142.475 192.246 141.478 195.48 140.422 198.904C140.032 200.168 139.632 201.466 139.236 202.834C138.714 204.638 138.063 206.885 137.439 209.892C136.815 212.896 136.362 215.938 136.09 218.933C135.702 223.224 135.76 226.01 135.779 226.926C135.789 227.414 135.791 227.517 135.634 227.675Z" fill="#F2F2F2"/>
<path d="M138.101 181.744C138.061 181.735 138.021 181.725 137.981 181.713C137.161 181.483 136.504 180.815 136.026 179.727C135.803 179.216 135.75 178.678 135.645 177.604C135.628 177.439 135.556 176.601 135.645 175.491C135.704 174.766 135.781 174.475 135.979 174.246C136.198 173.991 136.493 173.845 136.805 173.772C136.813 173.676 136.845 173.582 136.907 173.493C137.164 173.124 137.593 173.276 137.826 173.355C137.944 173.397 138.09 173.451 138.255 173.478C138.513 173.523 138.668 173.478 138.901 173.41C139.125 173.345 139.403 173.264 139.788 173.271C140.546 173.281 141.108 173.622 141.293 173.735C142.268 174.321 142.605 175.256 142.995 176.339C143.072 176.556 143.329 177.341 143.389 178.351C143.432 179.08 143.337 179.378 143.227 179.592C143.004 180.03 142.661 180.234 141.811 180.661C140.924 181.11 140.478 181.334 140.113 181.449C139.263 181.716 138.729 181.884 138.101 181.744Z" fill="#F2F2F2"/>
<path d="M252 228.637C252 228.837 251.837 229 251.637 229H0V228.274H251.637C251.837 228.274 252 228.436 252 228.637Z" fill="#E6E6E6"/>
<path d="M70.0055 28.1848L85.4732 35.6121C85.4732 35.6121 101.869 84.1985 101.869 86.6743C101.869 89.15 106.509 90.6974 103.725 93.4826C100.941 96.2678 108.907 98.6266 104.615 100.851C100.322 103.076 73.5448 115.245 70.5673 114.148C62.3552 111.121 70.9153 99.9997 70.9153 99.9997C70.9153 99.9997 64.7465 95.0299 65.6746 92.5542C66.6026 90.0784 60.1062 42.7298 60.1062 42.7298L70.0055 28.1848Z" fill="#E6E6E6"/>
<path d="M83.2419 18.906L84.9932 22.4098C84.9932 22.4098 86.7444 16.103 89.5464 14.7015C92.3484 13.3 92.6986 11.1977 92.6986 11.1977C92.6986 11.1977 96.2011 15.7526 98.6528 14.7015C101.105 13.6503 102.155 12.9496 99.3533 8.74505C96.5514 4.54051 97.2519 6.64278 97.2519 6.64278C97.2519 6.64278 94.8001 3.139 95.1504 4.19013C95.5006 5.24126 93.0489 1.38711 93.0489 2.43824C93.0489 3.48937 91.2976 0.335968 91.2976 1.38711C91.2976 2.43824 83.9424 -1.06554 84.9932 0.335973C86.0439 1.73749 78.6887 -2.46705 75.1862 3.139C71.6838 8.74505 66.8272 7.70832 68.555 11.2049C70.2828 14.7015 69.5823 24.1617 69.5823 24.1617H74.4127C74.4127 24.1617 79.3892 14.7015 83.2419 18.906Z" fill="#2F2E41"/>
<path d="M186.322 48.6096L186.606 48.5295L200.552 44.5865L211.689 59.7505L204.265 91.3162L207.049 104.004C207.049 104.004 184.466 98.1245 175.495 103.076C175.495 103.076 174.876 100.254 175.495 98.8799C176.114 97.5056 177.042 91.7865 176.114 89.2304C175.186 86.6742 177.97 74.6049 177.97 74.6049C177.97 74.6049 177.042 66.5588 181.063 62.5357C185.085 58.5126 186.322 48.6096 186.322 48.6096Z" fill="#F9A826"/>
<path d="M173.656 105.608L124.647 81.2434C124.404 81.1222 124.191 80.9553 124.014 80.7473L116.367 71.7318C115.86 71.1339 115.75 70.2901 116.088 69.5822L130.426 39.4882C130.678 38.9608 131.145 38.5714 131.709 38.4197C132.274 38.2683 132.873 38.3709 133.355 38.7014L167.917 62.4181C168.627 62.9049 168.944 63.7876 168.706 64.6148L161.689 89.0434C161.497 89.7116 161.742 90.4407 162.298 90.8578L176.179 101.273C176.927 101.834 177.185 102.857 176.794 103.705L176.355 104.657C176.127 105.151 175.719 105.522 175.206 105.703C174.989 105.78 174.765 105.818 174.541 105.818C174.238 105.818 173.936 105.747 173.656 105.608Z" fill="#F9A826"/>
<path d="M173.264 99.6781L159.622 88.3237C159.504 88.2247 159.412 88.104 159.347 87.9709C159.223 87.7203 159.198 87.4201 159.291 87.1446L167.065 64.3895C167.266 63.8015 167.05 63.1454 166.536 62.7926L134.147 40.6099C133.816 40.3809 133.401 40.3097 133.011 40.4119C132.619 40.514 132.294 40.7801 132.114 41.1422L118.459 68.8798C118.252 69.2976 118.268 69.7773 118.497 70.1765C118.524 70.2322 118.558 70.2848 118.599 70.3343L125.466 79.4017C125.599 79.5751 125.773 79.7174 125.967 79.8133L171.77 101.999C171.962 102.092 172.169 102.138 172.377 102.138C172.735 102.138 173.094 101.999 173.36 101.73C173.391 101.696 173.422 101.665 173.453 101.628C173.67 101.365 173.781 101.027 173.766 100.684C173.747 100.294 173.565 99.9288 173.264 99.6781Z" fill="#F2F2F2"/>
<path d="M123.833 67.1778C123.946 67.1778 124.055 67.1155 124.109 67.0075L135.212 44.9419C135.289 44.7891 135.227 44.6031 135.075 44.5263C134.922 44.4491 134.736 44.5109 134.659 44.6635L123.557 66.7292C123.48 66.8819 123.541 67.0679 123.694 67.1447C123.739 67.1672 123.786 67.1778 123.833 67.1778Z" fill="#F9A826"/>
<path d="M129.71 70.8913C129.824 70.8913 129.933 70.8291 129.987 70.721L141.09 48.6554C141.166 48.5026 141.105 48.3166 140.952 48.2399C140.799 48.1625 140.614 48.2246 140.537 48.3771L129.434 70.4427C129.357 70.5955 129.419 70.7815 129.572 70.8582C129.616 70.8807 129.664 70.8913 129.71 70.8913Z" fill="#F9A826"/>
<path d="M134.66 73.986C134.773 73.986 134.882 73.9238 134.937 73.8157L146.039 51.7501C146.116 51.5973 146.055 51.4113 145.902 51.3346C145.749 51.2573 145.563 51.3191 145.487 51.4718L134.384 73.5374C134.307 73.6901 134.369 73.8762 134.521 73.9529C134.566 73.9754 134.613 73.986 134.66 73.986Z" fill="#F9A826"/>
<path d="M117.137 70.997C120.976 69.8625 124.673 70.9243 125.394 73.3683C126.115 75.8124 123.588 78.7126 119.748 79.847C118.22 80.3212 116.601 80.4225 115.026 80.1424L98.7004 84.7439L96.7051 77.0339L113.011 73.3162C114.182 72.2246 115.596 71.4293 117.137 70.997Z" fill="#FFB6B6"/>
<path d="M88.2611 43.6729L85.7023 74.2955L108.622 74.542L113.071 81.3941C113.071 81.3941 85.2902 97.4854 76.9486 89.2632C68.6069 81.0411 64.8953 46.4414 72.3117 40.519C79.7282 34.5965 88.2611 43.6729 88.2611 43.6729Z" fill="#E6E6E6"/>
<path d="M163.343 98.9636C159.352 98.6629 156.272 96.3589 156.463 93.8177C156.655 91.2766 160.046 89.4612 164.039 89.7626C165.635 89.8611 167.185 90.3406 168.559 91.1612L185.455 92.6491L184.588 100.566L168.023 98.2586C166.542 98.8641 164.937 99.1059 163.343 98.9636Z" fill="#A0616A"/>
<path d="M212.756 61.7736L209.995 96.2711C209.995 96.2711 209.126 103.705 197.552 103.239C185.978 102.773 170.605 99.1185 170.605 99.1185L171.16 91.0677L184.097 91.7706C184.097 91.7706 190.023 89.991 191.268 90.9096C192.512 91.8282 192.027 93.0081 193.129 91.5139C194.231 90.0198 193.591 89.1631 194.69 90.359C195.789 91.5549 196.116 93.7187 196.589 90.9916C197.063 88.2644 198.242 88.7503 198.242 88.7503L197.55 63.6262C197.55 63.6262 200.363 51.4725 206.888 55.135C213.413 58.7974 212.756 61.7736 212.756 61.7736Z" fill="#F9A826"/>
</g>
<defs>
<clipPath id="clip0_13_36">
<rect width="252" height="229" fill="white"/>
</clipPath>
</defs>
</svg>
