<svg width="222" height="231" viewBox="0 0 222 231" fill="none" xmlns="http://www.w3.org/2000/svg">
<g clip-path="url(#clip0_13_7)">
<path d="M210.383 215.253C210.383 223.949 163.287 231 105.191 231C47.0952 231 0 223.949 0 215.253C0 209.096 23.607 203.762 58.0113 201.175C72.1986 200.105 88.2284 199.505 105.191 199.505C112.164 199.505 118.978 199.607 125.568 199.8C173.912 201.222 210.383 207.599 210.383 215.253Z" fill="#3F3D56"/>
<path opacity="0.1" d="M91.6183 218.47C113.919 218.47 131.998 216.271 131.998 213.559C131.998 210.847 113.919 208.649 91.6183 208.649C69.3171 208.649 51.2384 210.847 51.2384 213.559C51.2384 216.271 69.3171 218.47 91.6183 218.47Z" fill="black"/>
<path d="M91.4486 217.115C112.532 217.115 129.623 198.921 129.623 176.477C129.623 154.033 112.532 135.838 91.4486 135.838C70.3655 135.838 53.2743 154.033 53.2743 176.477C53.2743 198.921 70.3655 217.115 91.4486 217.115Z" fill="#3F3D56"/>
<path d="M103.495 200.521H79.7418V222.195H103.495V200.521Z" fill="#F9A826"/>
<path d="M134.543 205.771L133.186 213.221L142.008 214.575L147.777 211.189L147.438 205.771H134.543Z" fill="#575A89"/>
<path d="M90.0913 65.9065C90.0913 65.9065 89.4126 73.6955 87.716 74.0342C86.0194 74.3729 91.4486 87.919 91.4486 87.919H99.5924L106.04 86.2257L102.986 78.7753C102.986 78.7753 98.9138 73.3569 101.968 68.9544C105.022 64.5519 90.0913 65.9065 90.0913 65.9065Z" fill="#A0616A"/>
<path opacity="0.1" d="M90.0913 65.9065C90.0913 65.9065 89.4126 73.6955 87.716 74.0342C86.0194 74.3729 91.4486 87.919 91.4486 87.919H99.5924L106.04 86.2257L102.986 78.7753C102.986 78.7753 98.9138 73.3569 101.968 68.9544C105.022 64.5519 90.0913 65.9065 90.0913 65.9065Z" fill="black"/>
<path d="M73.125 125.509C73.125 125.509 64.3025 142.442 71.4283 145.829C78.5542 149.215 80.2508 148.877 80.2508 149.893C80.2508 150.908 78.8935 150.57 79.5722 152.263C80.2508 153.956 78.2149 160.729 80.2508 164.793C82.2868 168.857 81.6081 171.905 81.6081 171.905C81.6081 171.905 81.6081 172.244 82.2868 173.598C82.9654 174.953 83.3048 175.969 82.9654 176.646C82.6261 177.323 80.5901 181.726 82.6261 182.742C84.6621 183.758 95.1812 184.435 96.1992 182.742C97.2172 181.049 95.1812 180.033 96.1992 179.017C97.2172 178.001 97.8958 177.662 97.2172 176.985C96.5385 176.307 95.8599 167.841 95.8599 167.841C95.8599 167.841 97.5565 158.02 96.8778 156.666C96.1992 155.311 95.1812 153.956 95.8599 152.94C96.5385 151.924 97.2172 152.263 97.5565 150.908C97.8958 149.554 98.5745 146.506 98.5745 146.506L102.307 146.167L111.13 147.861C111.13 147.861 120.97 158.698 131.828 162.084C131.828 162.084 134.882 165.132 135.9 165.132C136.918 165.132 136.918 165.132 136.579 165.809C136.24 166.487 135.222 166.487 135.9 167.164C136.579 167.841 137.597 166.825 136.918 167.841C136.24 168.857 135.561 168.857 136.24 169.534C136.918 170.212 135.9 173.937 135.9 174.276C135.9 174.614 132.846 206.448 133.864 207.125C134.882 207.802 149.134 209.834 150.152 207.125C151.17 204.416 149.473 201.029 149.473 201.029C149.473 201.029 154.563 160.391 153.206 157.682C151.849 154.972 147.098 142.781 121.649 134.992C121.649 134.992 114.523 133.637 114.523 132.621C114.523 131.605 113.844 125.171 112.487 124.832C111.13 124.494 103.325 124.155 103.325 124.155L93.4846 127.203L79.9115 124.832L73.125 125.509Z" fill="#2F2E41"/>
<path d="M85.0014 182.403L83.3047 188.499C83.3047 188.499 81.9474 198.32 83.644 200.691C84.9767 202.553 87.3562 204.832 91.769 205.233C93.0058 205.346 94.2442 205.034 95.2795 204.35C96.3147 203.665 97.0849 202.648 97.4625 201.468C97.5131 201.326 97.5447 201.179 97.5565 201.029C97.5565 200.352 96.5385 192.224 96.5385 192.224L94.8419 183.758L94.5025 181.387L85.0014 182.403Z" fill="#2F2E41"/>
<path d="M134.543 211.527C134.543 211.527 132.846 209.834 132.507 211.527C132.168 213.221 130.81 220.332 133.186 220.671C135.561 221.01 158.296 224.396 160.671 223.042C163.047 221.687 167.458 219.655 164.743 218.639C162.029 217.623 154.224 214.575 154.224 214.575C154.224 214.575 149.813 208.818 149.134 208.48C148.455 208.141 144.723 208.818 143.026 210.173C141.33 211.527 134.543 211.527 134.543 211.527Z" fill="#2F2E41"/>
<path d="M98.2351 73.0182C104.045 73.0182 108.754 68.318 108.754 62.52C108.754 56.722 104.045 52.0217 98.2351 52.0217C92.4256 52.0217 87.716 56.722 87.716 62.52C87.716 68.318 92.4256 73.0182 98.2351 73.0182Z" fill="#A0616A"/>
<path d="M97.2171 86.2257L93.1452 81.8232L88.6316 73.0182C88.6316 73.0182 85.3407 72.0023 84.662 73.6955C83.9834 75.3888 71.7676 80.8073 71.7676 80.8073C71.7676 80.8073 74.8215 109.254 73.4642 111.963C72.1069 114.673 69.7316 125.51 71.7676 126.525C73.8036 127.541 83.3047 126.525 86.3586 127.88C89.4126 129.235 98.2351 129.235 100.61 127.541C102.986 125.848 103.664 124.494 106.04 125.51C108.062 126.374 112.789 96.8049 114.15 87.9932C114.265 87.2531 114.17 86.4957 113.875 85.8068C113.581 85.118 113.099 84.5251 112.485 84.0954C109.44 81.9639 103.956 78.291 102.986 78.7754C101.628 79.4527 97.2171 86.2257 97.2171 86.2257Z" fill="#575A89"/>
<path d="M111.808 84.8711C112.605 85.0699 113.322 85.5073 113.862 86.1245C114.403 86.7417 114.741 87.5092 114.832 88.3239L117.577 112.979C117.577 112.979 110.79 127.541 107.397 117.72C104.004 107.9 111.808 84.8711 111.808 84.8711Z" fill="#575A89"/>
<path d="M111.13 115.35L118.595 113.318C118.595 113.318 119.952 122.8 121.309 122.8C122.667 122.8 116.559 128.219 113.505 127.541C110.451 126.864 106.04 124.494 105.7 122.8C105.361 121.107 108.754 113.995 108.754 113.995L111.13 115.35Z" fill="#575A89"/>
<path d="M90.2943 67.0488C91.0095 65.4747 90.8853 63.6387 91.4767 62.0142C91.7933 61.1443 92.3072 60.3593 92.9781 59.7205C93.6491 59.0816 94.4589 58.6063 95.3444 58.3315C96.2299 58.0567 97.1671 57.9899 98.0827 58.1365C98.9983 58.283 99.8676 58.6387 100.623 59.176C101.383 59.7173 102.146 60.4779 103.074 60.3745C104.074 60.2632 104.966 59.15 105.885 59.558C106.904 60.0102 106.629 61.8326 107.662 62.2536C108.205 62.4751 108.847 62.134 109.16 61.6387C109.434 61.1182 109.584 60.5413 109.597 59.9535C109.739 58.5091 109.868 56.9804 109.24 55.6712C108.976 55.2275 108.746 54.7645 108.552 54.2861C108.442 53.8395 108.398 53.3792 108.421 52.9199C108.415 51.2222 108.291 49.4513 107.435 47.9843C106.485 46.3564 104.729 45.3154 102.897 44.8611C101.065 44.4069 99.1459 44.4766 97.265 44.6355C94.1557 44.8982 90.9131 45.4613 88.4634 47.3904C88.1304 47.6332 87.8438 47.9337 87.6173 48.2775C87.4023 48.686 87.2503 49.1246 87.1666 49.5785C86.637 51.731 85.8429 53.81 84.8024 55.7681C84.3018 56.5982 83.8928 57.4799 83.5823 58.3979C83.3225 59.3307 83.3401 60.3937 83.8839 61.1954C84.3266 61.8482 85.0344 62.196 85.5905 62.7297C86.1415 63.2585 86.3993 64.2754 87.0097 64.6758C87.5426 65.0254 88.1809 64.7786 88.7243 65.1491C89.4221 65.6248 89.4725 66.6677 90.2943 67.0488Z" fill="#2F2E41"/>
<path d="M98.9138 91.3055L99.9317 89.2736C99.9317 89.2736 114.862 93.6761 117.916 97.7399C117.916 97.7399 125.381 92.9988 129.453 93.6761L133.525 94.3534L120.97 105.529L105.022 104.174L98.9138 91.3055Z" fill="#F2F2F2"/>
<path d="M98.2351 89.2736L84.3227 108.577L104.343 118.398C104.343 118.398 106.215 119.414 107.654 118.398L120.97 112.302L133.525 94.3534L120.97 100.788C120.97 100.788 119.613 98.0786 116.898 99.4332L98.2351 89.2736Z" fill="#F9A826"/>
<path d="M119.613 123.478L122.327 116.366C122.327 116.366 128.435 108.577 125.042 104.852C121.649 101.126 117.916 115.689 117.916 115.689L119.613 123.478Z" fill="#A0616A"/>
<path d="M88.2921 122.343L94.2154 117.55C94.2154 117.55 103.415 113.871 102.352 108.949C101.289 104.028 90.74 114.755 90.74 114.755L88.2921 122.343Z" fill="#A0616A"/>
<path opacity="0.1" d="M73.6339 88.0883H73.2946C73.2946 88.0883 68.035 81.8232 67.017 90.2895C65.9991 98.7559 62.6058 126.864 71.4283 127.88C80.2508 128.896 86.5283 123.647 86.5283 123.647C86.5283 123.647 92.9755 113.826 90.6002 113.826C89.451 113.826 86.3253 113.311 83.4744 113.487C80.4331 113.676 77.7003 114.531 77.8755 113.657C78.2148 111.963 83.1351 90.4589 73.6339 88.0883Z" fill="black"/>
<path d="M73.1249 81.4846L71.7676 80.8073C71.7676 80.8073 66.3384 81.8232 65.3204 90.2895C64.3024 98.7559 60.9091 126.864 69.7316 127.88C78.5541 128.896 90.4306 126.525 90.4306 126.525C90.4306 126.525 92.8058 113.657 90.4306 113.657C88.0553 113.657 75.8395 115.35 76.1788 113.657C76.5182 111.963 82.626 83.8551 73.1249 81.4846Z" fill="#575A89"/>
<path d="M114.692 119.583L118.434 113.86L120.8 123.308L114.692 126.018V119.583Z" fill="#575A89"/>
<path d="M37.8258 37.9676C42.8857 37.9676 46.9876 33.8739 46.9876 28.824C46.9876 23.7741 42.8857 19.6803 37.8258 19.6803C32.7658 19.6803 28.6639 23.7741 28.6639 28.824C28.6639 33.8739 32.7658 37.9676 37.8258 37.9676Z" fill="#F2F2F2"/>
<path d="M48.6843 96.8933H26.9674V118.567H48.6843V96.8933Z" fill="#F2F2F2"/>
<path d="M126.23 0L131.726 9.5016L137.223 19.0032H126.23H115.236L120.733 9.5016L126.23 0Z" fill="#F2F2F2"/>
<path d="M222 56.9713C221.869 61.0251 220.879 64.2743 219.033 66.719C217.185 69.1639 214.991 70.3864 212.449 70.3867C210.379 70.3867 208.564 69.1903 207.005 66.7974C205.446 64.4046 204.667 60.7239 204.667 55.7553C204.667 54.657 204.693 53.611 204.745 52.6172C204.798 51.6237 204.863 50.6823 204.942 49.7929L206.318 36.8876H197.238C195.666 53.2056 194.376 62.9141 193.367 66.0129C192.358 69.1117 190.648 70.6612 188.238 70.6613C187.15 70.6346 186.111 70.2005 185.329 69.4453C184.876 69.0442 184.517 68.5476 184.279 67.9913C184.041 67.435 183.93 66.833 183.954 66.2286C183.954 65.0262 184.903 63.346 186.803 61.1881C188.703 59.0307 189.757 57.0628 189.967 55.2846L192.325 36.8875H188.513C187.438 36.8939 186.38 37.1561 185.428 37.6524C184.55 38.0544 183.787 38.6677 183.207 39.4372L181.517 41.9477H180.141C181.425 37.973 183.003 34.9852 184.877 32.9845C186.75 30.984 188.905 29.9837 191.343 29.9837H221.371V36.8875H211.231C210.916 40.0256 210.674 43.1637 210.504 46.3017C210.333 49.4399 210.248 52.591 210.248 55.7553C210.248 57.8999 210.746 59.6389 211.742 60.9724C212.737 62.3061 213.982 62.9729 215.476 62.9729C216.392 62.9729 217.355 62.6002 218.364 61.8549C218.844 61.5195 219.244 61.0847 219.539 60.5803C219.835 60.0759 220.017 59.5139 220.074 58.9326C220.153 58.3577 220.212 57.9066 220.251 57.5793C220.29 57.2526 220.31 57.05 220.31 56.9713L222 56.9713Z" fill="#F9A826"/>
<path opacity="0.1" d="M222 56.9713C221.869 61.0251 220.879 64.2743 219.033 66.719C217.185 69.1639 214.991 70.3864 212.449 70.3867C210.379 70.3867 208.564 69.1903 207.005 66.7974C205.446 64.4046 204.667 60.7239 204.667 55.7553C204.667 54.657 204.693 53.611 204.745 52.6172C204.798 51.6237 204.863 50.6823 204.942 49.7929L206.318 36.8876H197.238C195.666 53.2056 194.376 62.9141 193.367 66.0129C192.358 69.1117 190.648 70.6612 188.238 70.6613C187.15 70.6346 186.111 70.2005 185.329 69.4453C184.876 69.0442 184.517 68.5476 184.279 67.9913C184.041 67.435 183.93 66.833 183.954 66.2286C183.954 65.0262 184.903 63.346 186.803 61.1881C188.703 59.0307 189.757 57.0628 189.967 55.2846L192.325 36.8875H188.513C187.438 36.8939 186.38 37.1561 185.428 37.6524C184.55 38.0544 183.787 38.6677 183.207 39.4372L181.517 41.9477H180.141C181.425 37.973 183.003 34.9852 184.877 32.9845C186.75 30.984 188.905 29.9837 191.343 29.9837H221.371V36.8875H211.231C210.916 40.0256 210.674 43.1637 210.504 46.3017C210.333 49.4399 210.248 52.591 210.248 55.7553C210.248 57.8999 210.746 59.6389 211.742 60.9724C212.737 62.3061 213.982 62.9729 215.476 62.9729C216.392 62.9729 217.355 62.6002 218.364 61.8549C218.844 61.5195 219.244 61.0847 219.539 60.5803C219.835 60.0759 220.017 59.5139 220.074 58.9326C220.153 58.3577 220.212 57.9066 220.251 57.5793C220.29 57.2526 220.31 57.05 220.31 56.9713L222 56.9713Z" fill="black"/>
<path d="M222 55.7457C221.869 59.7995 220.879 63.0487 219.033 65.4934C217.185 67.9383 214.991 69.1609 212.449 69.1611C210.379 69.1611 208.564 67.9647 207.005 65.5718C205.446 63.179 204.667 59.4983 204.667 54.5297C204.667 53.4314 204.693 52.3854 204.745 51.3916C204.798 50.3981 204.863 49.4567 204.942 48.5674L206.318 35.6619H197.238C195.666 51.98 194.376 61.6885 193.367 64.7874C192.358 67.8862 190.648 69.4356 188.238 69.4357C187.15 69.409 186.111 68.9749 185.329 68.2197C184.876 67.8186 184.517 67.322 184.279 66.7657C184.041 66.2094 183.93 65.6074 183.954 65.0031C183.954 63.8006 184.903 62.1204 186.803 59.9625C188.703 57.8051 189.757 55.8372 189.967 54.059L192.325 35.662H188.513C187.438 35.6683 186.38 35.9306 185.428 36.4268C184.55 36.8288 183.787 37.4421 183.207 38.2116L181.517 40.7221H180.141C181.425 36.7474 183.003 33.7596 184.877 31.7589C186.75 29.7584 188.905 28.7581 191.343 28.7581H221.371V35.6619H211.231C210.916 38.8 210.674 41.9381 210.504 45.0762C210.333 48.2143 210.248 51.3655 210.248 54.5297C210.248 56.6743 210.746 58.4133 211.742 59.7468C212.737 61.0805 213.982 61.7474 215.476 61.7473C216.392 61.7473 217.355 61.3747 218.364 60.6293C218.844 60.2939 219.244 59.8591 219.539 59.3548C219.835 58.8504 220.017 58.2883 220.074 57.7071C220.153 57.1321 220.212 56.681 220.251 56.3537C220.29 56.0271 220.31 55.8244 220.31 55.7457H222Z" fill="#F9A826"/>
</g>
<defs>
<clipPath id="clip0_13_7">
<rect width="222" height="231" fill="white"/>
</clipPath>
</defs>
</svg>
